<svg width="48" height="16" viewBox="0 0 48 16" fill="none" xmlns="http://www.w3.org/2000/svg">
<g clip-path="url(#clip0_162_155)">
<path d="M2.33455 8.48397C1.87219 8.48397 1.46519 8.38297 1.11353 8.18096C0.76188 7.97246 0.488373 7.68574 0.293012 7.32081C0.0976491 6.94944 -3.05176e-05 6.52264 -3.05176e-05 6.04041C-3.05176e-05 5.46048 0.143235 4.95222 0.429768 4.51568C0.722809 4.07908 1.13632 3.74349 1.67031 3.50889C2.21082 3.27436 2.84249 3.15707 3.56533 3.15707C3.89744 3.15707 4.1677 3.17985 4.37609 3.22548V3.02023C4.37609 2.52499 4.28491 2.15683 4.10258 1.91573C3.92024 1.66812 3.64348 1.54431 3.27228 1.54431C2.67317 1.54431 2.28896 1.86034 2.11965 2.4924C2.06755 2.67486 1.96011 2.75305 1.7973 2.72698L0.46884 2.4924C0.371155 2.47286 0.30278 2.4305 0.263708 2.36534C0.231149 2.30018 0.227891 2.21221 0.253945 2.10144C0.423258 1.4368 0.781425 0.922023 1.32844 0.557124C1.88196 0.185708 2.5755 0 3.40905 0C4.39888 0 5.15102 0.26716 5.66548 0.80148C6.18645 1.3358 6.44692 2.11447 6.44692 3.13753V8.05393C6.44692 8.12559 6.4209 8.18745 6.36881 8.23958C6.32321 8.28521 6.26456 8.308 6.19294 8.308H4.9231C4.76681 8.308 4.66913 8.22329 4.63006 8.05393L4.4347 7.13516H4.35655C4.18073 7.5652 3.91699 7.89749 3.56534 8.13208C3.2202 8.36667 2.80993 8.48397 2.33455 8.48397ZM2.12942 5.80582C2.12942 6.15121 2.21733 6.42813 2.39315 6.63663C2.5755 6.83864 2.8197 6.93964 3.12576 6.93964C3.52951 6.93964 3.83884 6.76042 4.05374 6.40204C4.26863 6.03716 4.37609 5.51585 4.37609 4.83823V4.32017C4.19374 4.28758 4.02118 4.27129 3.85837 4.27129C3.32438 4.27129 2.9011 4.41137 2.58852 4.69159C2.28245 4.96527 2.12942 5.33669 2.12942 5.80582ZM7.65815 0.430058C7.65815 0.358381 7.68098 0.29974 7.72652 0.254126C7.77861 0.201995 7.8405 0.175933 7.91212 0.175933H9.20152C9.27314 0.175933 9.33178 0.198736 9.37733 0.24435C9.42948 0.289964 9.46199 0.351864 9.47502 0.430058L9.67042 1.38793H9.74853C9.92439 0.938316 10.1751 0.596221 10.5007 0.36164C10.8328 0.120543 11.2235 0 11.6728 0C12.1548 0 12.5683 0.12706 12.9134 0.381192C13.2651 0.635317 13.5353 0.996964 13.7242 1.46612H13.8023C14.0889 0.970895 14.4112 0.602738 14.7694 0.36164C15.1275 0.120543 15.528 0 15.9708 0C16.4528 0 16.8695 0.130319 17.2212 0.390961C17.5793 0.65161 17.8528 1.02303 18.0417 1.50521C18.2305 1.98741 18.325 2.55757 18.325 3.21568V8.05393C18.325 8.12559 18.2989 8.18745 18.2468 8.23958C18.2012 8.28521 18.1426 8.308 18.071 8.308H16.5081C16.4365 8.308 16.3746 8.28521 16.3225 8.23958C16.2769 8.18745 16.2541 8.12559 16.2541 8.05393V3.37206C16.2541 2.89638 16.163 2.5315 15.9806 2.27737C15.7983 2.02325 15.5345 1.89618 15.1894 1.89618C14.8117 1.89618 14.5219 2.04605 14.32 2.34579C14.1247 2.64553 14.027 3.07885 14.027 3.64573V8.05393C14.027 8.12559 14.0009 8.18745 13.9488 8.23958C13.9033 8.28521 13.8446 8.308 13.773 8.308H12.2101C12.1385 8.308 12.0766 8.28521 12.0245 8.23958C11.9789 8.18745 11.9561 8.12559 11.9561 8.05393V3.37206C11.9561 2.89638 11.865 2.5315 11.6826 2.27737C11.5003 2.02325 11.2366 1.89618 10.8914 1.89618C10.5137 1.89618 10.2239 2.04605 10.022 2.34579C9.8267 2.64553 9.729 3.07885 9.729 3.64573V8.05393C9.729 8.12559 9.70298 8.18745 9.65089 8.23958C9.60529 8.28521 9.54664 8.308 9.47502 8.308H7.91212C7.8405 8.308 7.77861 8.28521 7.72652 8.23958C7.68098 8.18745 7.65815 8.12559 7.65815 8.05393V0.430058ZM19.3408 6.04041C19.3408 5.46048 19.4841 4.95222 19.7706 4.51568C20.0637 4.07908 20.4772 3.74349 21.0112 3.50889C21.5517 3.27436 22.1834 3.15707 22.9062 3.15707C23.2383 3.15707 23.5086 3.17985 23.717 3.22548V3.02023C23.717 2.52499 23.6258 2.15683 23.4435 1.91573C23.2611 1.66812 22.9844 1.54431 22.6132 1.54431C22.0141 1.54431 21.6298 1.86034 21.4605 2.4924C21.4084 2.67486 21.301 2.75305 21.1382 2.72698L19.8097 2.4924C19.712 2.47286 19.6436 2.4305 19.6046 2.36534C19.572 2.30018 19.5688 2.21221 19.5948 2.10144C19.7641 1.4368 20.1223 0.922023 20.6693 0.557124C21.2228 0.185708 21.9164 0 22.7499 0C23.7397 0 24.4919 0.26716 25.0064 0.80148C25.5273 1.3358 25.7878 2.11447 25.7878 3.13753V8.05393C25.7878 8.12559 25.7617 8.18745 25.7096 8.23958C25.664 8.28521 25.6055 8.308 25.5338 8.308H24.264C24.1077 8.308 24.01 8.22329 23.9709 8.05393L23.7755 7.13516H23.6974C23.5216 7.5652 23.2579 7.89749 22.9062 8.13208C22.5611 8.36667 22.1508 8.48397 21.6754 8.48397C21.2 8.48397 20.8061 8.38297 20.4544 8.18096C20.1027 7.97246 19.8292 7.68574 19.6339 7.32081C19.4385 6.94944 19.3408 6.52264 19.3408 6.04041ZM21.4703 5.80582C21.4703 6.15121 21.5582 6.42813 21.734 6.63663C21.9164 6.83864 22.1605 6.93964 22.4666 6.93964C22.8704 6.93964 23.1797 6.76042 23.3946 6.40204C23.6095 6.03716 23.717 5.51585 23.717 4.83823V4.32017C23.5346 4.28758 23.362 4.27129 23.1992 4.27129C22.6652 4.27129 22.242 4.41137 21.9294 4.69159C21.6233 4.96527 21.4703 5.33669 21.4703 5.80582ZM26.8428 6.87122C26.8428 6.7279 26.8818 6.60404 26.96 6.4998L30.3007 1.81799H27.1748C27.1032 1.81799 27.0413 1.79518 26.9892 1.74957C26.9437 1.69744 26.9209 1.63554 26.9209 1.56386V0.430058C26.9209 0.358381 26.9437 0.29974 26.9892 0.254126C27.0413 0.201995 27.1032 0.175933 27.1748 0.175933H32.3129C32.3845 0.175933 32.4431 0.201995 32.4887 0.254126C32.5408 0.29974 32.5668 0.358381 32.5668 0.430058V1.61273C32.5668 1.75609 32.5278 1.87989 32.4496 1.98415L29.4215 6.14791C29.6039 6.11538 29.7895 6.09909 29.9783 6.09909C30.4472 6.09909 30.877 6.14141 31.2677 6.22612C31.6649 6.30434 32.0752 6.43462 32.4985 6.61709C32.6483 6.68226 32.7231 6.79301 32.7231 6.94944V8.07346C32.7231 8.17771 32.6906 8.24938 32.6255 8.28846C32.5604 8.32104 32.4789 8.3178 32.3812 8.27871C31.8929 8.09625 31.4598 7.96921 31.0821 7.89749C30.7109 7.81933 30.3039 7.78019 29.8611 7.78019C29.4183 7.78019 28.995 7.81933 28.5717 7.89749C28.1549 7.9757 27.6926 8.10274 27.1846 8.27871C27.0869 8.3113 27.0055 8.3113 26.9404 8.27871C26.8753 8.23957 26.8428 8.17116 26.8428 8.07346V6.87122ZM33.153 4.24195C33.153 3.44703 33.306 2.72698 33.6121 2.08189C33.9181 1.43028 34.3381 0.922023 34.8721 0.557124C35.4127 0.185708 36.0118 0 36.6694 0C37.3272 0 37.9328 0.185708 38.4668 0.557124C39.0073 0.922023 39.4306 1.43028 39.7367 2.08189C40.0492 2.72698 40.2056 3.44703 40.2056 4.24195C40.2056 5.03693 40.0492 5.76025 39.7367 6.41184C39.4306 7.05694 39.0073 7.5652 38.4668 7.93663C37.9328 8.3015 37.3337 8.48397 36.6694 8.48397C36.0052 8.48397 35.4127 8.3015 34.8721 7.93663C34.3381 7.5652 33.9181 7.05694 33.6121 6.41184C33.306 5.76025 33.153 5.03693 33.153 4.24195ZM35.3019 4.24195C35.3019 5.06952 35.4191 5.70812 35.6536 6.15771C35.888 6.6008 36.2266 6.82234 36.6694 6.82234C37.1123 6.82234 37.4542 6.6008 37.6951 6.15771C37.9361 5.70812 38.0565 5.06952 38.0565 4.24195C38.0565 3.41444 37.9361 2.77911 37.6951 2.33602C37.4542 1.88641 37.1123 1.6616 36.6694 1.6616C36.2266 1.6616 35.888 1.88641 35.6536 2.33602C35.4191 2.77911 35.3019 3.41444 35.3019 4.24195ZM41.2604 0.430058C41.2604 0.358381 41.2833 0.29974 41.3289 0.254126C41.381 0.201995 41.4428 0.175933 41.5144 0.175933H42.8038C42.8754 0.175933 42.9341 0.198736 42.9797 0.24435C43.0318 0.289964 43.0643 0.351864 43.0773 0.430058L43.2727 1.38793H43.3508C43.5267 0.944833 43.7839 0.602738 44.1225 0.36164C44.4677 0.120543 44.8714 0 45.3338 0C45.8287 0 46.2552 0.130319 46.6134 0.390961C46.9781 0.65161 47.2581 1.02303 47.4535 1.50521C47.6488 1.98741 47.7465 2.55757 47.7465 3.21568V8.05393C47.7465 8.12559 47.7204 8.18745 47.6683 8.23958C47.6228 8.28521 47.5641 8.308 47.4925 8.308H45.9296C45.858 8.308 45.7961 8.28521 45.744 8.23958C45.6985 8.18745 45.6756 8.12559 45.6756 8.05393V3.37206C45.6756 2.89638 45.578 2.5315 45.3826 2.27737C45.1872 2.02325 44.9105 1.89618 44.5523 1.89618C44.1551 1.89618 43.8523 2.04605 43.6439 2.34579C43.4355 2.64553 43.3313 3.07885 43.3313 3.64573V8.05393C43.3313 8.12559 43.3053 8.18745 43.2532 8.23958C43.2076 8.28521 43.149 8.308 43.0773 8.308H41.5144C41.4428 8.308 41.381 8.28521 41.3289 8.23958C41.2833 8.18745 41.2604 8.12559 41.2604 8.05393V0.430058Z" fill="#171D27"/>
<path d="M5.43128 9.43176C5.30755 9.52952 5.2815 9.69238 5.35314 9.92048C5.41826 10.1225 5.57129 10.3733 5.81224 10.6731C6.78251 11.8721 7.93841 12.869 9.2799 13.664C10.6214 14.459 12.0573 15.0454 13.5877 15.4233C15.1245 15.8078 16.6939 16 18.2959 16C20.3472 16 22.3008 15.7003 24.1567 15.1008C26.0127 14.5078 27.5625 13.6737 28.8064 12.5986C29.2427 12.2142 29.4608 11.9079 29.4608 11.6798C29.4608 11.5951 29.425 11.5104 29.3534 11.4257C29.2557 11.328 29.1385 11.2954 29.0017 11.328C28.865 11.3605 28.6729 11.442 28.4254 11.5723C27.2337 12.1979 25.7815 12.6963 24.0688 13.0678C22.3627 13.4457 20.5816 13.6346 18.7257 13.6346C16.4269 13.6346 14.2063 13.3219 12.0638 12.6963C9.92136 12.0708 8.02307 11.0934 6.36902 9.76411C6.12808 9.57515 5.93269 9.45454 5.78293 9.40242C5.63967 9.35029 5.52245 9.36009 5.43128 9.43176Z" fill="#FF6201"/>
<path d="M27.1356 9.92103C26.9989 10.0514 26.9631 10.1882 27.0282 10.3316C27.0738 10.4359 27.1617 10.4945 27.292 10.5075C27.4222 10.5271 27.6078 10.514 27.8487 10.4684C28.2394 10.3837 28.6465 10.325 29.0697 10.2925C29.493 10.2664 29.861 10.2729 30.1735 10.312C30.4862 10.3576 30.6815 10.4359 30.7597 10.5466C30.8769 10.7226 30.8345 11.0939 30.6327 11.6609C30.4373 12.2278 30.1703 12.7783 29.8317 13.3127C29.7014 13.5277 29.6233 13.6971 29.5972 13.821C29.5712 13.9448 29.6038 14.049 29.6949 14.1337C29.7535 14.1923 29.8186 14.2217 29.8903 14.2217C30.0792 14.2217 30.3527 14.0555 30.7108 13.7232C31.3555 13.1628 31.8081 12.4982 32.0686 11.7293C32.2118 11.3318 32.2997 10.9148 32.3323 10.4782C32.3649 10.0416 32.316 9.72883 32.1858 9.53987C32.062 9.3574 31.7885 9.20752 31.3653 9.09028C30.9485 8.97299 30.5285 8.91431 30.1052 8.91431C29.2781 8.91431 28.4934 9.10982 27.7511 9.50079C27.4776 9.65067 27.2725 9.79075 27.1356 9.92103Z" fill="#FF6201"/>
</g>
<defs>
<clipPath id="clip0_162_155">
<rect width="47.7465" height="16" fill="white"/>
</clipPath>
</defs>
</svg>
