<svg width="135" height="136" viewBox="0 0 135 136" fill="none" xmlns="http://www.w3.org/2000/svg">
<g clip-path="url(#clip0_162_17)">
<path d="M64.3262 136.001C43.1885 136.001 26.0531 135.223 26.0531 134.264C26.0531 133.306 43.1885 132.528 64.3262 132.528C85.4639 132.528 102.599 133.306 102.599 134.264C102.599 135.223 85.4639 136.001 64.3262 136.001Z" fill="black"/>
<path d="M91.3355 45.1521H92.3367L99.2256 47.9365L94.3247 101.229H89.9362L91.3355 45.1521Z" fill="#B94700"/>
<path d="M102.867 61.9498C103.323 57.945 103.735 53.8955 104.131 49.933C104.982 50.2986 105.846 50.6288 106.685 50.9498C107.33 51.1964 107.99 51.4497 108.644 51.7183L107.683 60.0293C107.451 60.1813 107.217 60.3266 106.976 60.4626C105.715 61.1787 104.34 61.6753 102.866 61.9498H102.867Z" fill="#B94700"/>
<path d="M99.3188 46.9239L92.9483 44.3489L94.4212 27.1771L100.767 31.1725L99.3188 46.9239Z" fill="#B94700"/>
<path d="M110.69 45.0473C110.539 45.8201 110.392 46.5802 110.246 47.3352C110.003 48.5969 109.771 49.7987 109.522 51.03C108.692 50.6753 107.852 50.3544 107.034 50.0419C106.11 49.688 105.157 49.3215 104.232 48.9144C104.265 48.5927 104.297 48.2692 104.329 47.9483C104.775 43.4765 105.234 38.8611 105.75 34.3091L108.18 35.8394C108.243 36.3275 108.332 36.8461 108.45 37.3984C108.801 39.0503 109.281 40.4387 109.397 40.7647C109.496 42.5374 110.013 43.9435 110.69 45.0465V45.0473Z" fill="#B94700"/>
<path d="M99.4365 69.5692C99.1706 69.5649 98.9444 69.7778 98.9393 70.0463C98.9342 70.3149 99.1486 70.537 99.4179 70.5421C99.5644 70.5446 99.7101 70.5463 99.855 70.5463C100.237 70.5463 100.614 70.5362 100.987 70.5167C100.45 76.0417 99.8465 81.6375 99.2621 87.0527C98.7615 91.6925 98.2431 96.4886 97.7687 101.229H95.3047L101.694 31.7561L104.834 33.7332C104.296 38.4431 103.819 43.2248 103.358 47.8529C102.893 52.5223 102.412 57.3471 101.868 62.1001C101.278 62.1685 100.674 62.2032 100.056 62.2032C99.7864 62.2032 99.5678 62.421 99.5678 62.6896C99.5678 62.9582 99.7864 63.1761 100.056 63.1761C102.795 63.1761 105.293 62.5444 107.479 61.2978C109.227 60.3013 110.776 58.9154 112.084 57.1765C113.671 55.0677 114.505 52.9792 114.864 51.9159C115.437 52.334 116.056 52.6464 116.612 52.8736C117.224 53.1244 117.793 53.2756 118.316 53.3516C118.009 54.621 117.043 58.027 114.844 61.3662C113.236 63.8086 111.291 65.7401 109.063 67.1065C106.284 68.8099 103.045 69.6393 99.4357 69.5692H99.4365Z" fill="#FF863D"/>
<path d="M100.232 87.1574C100.823 81.684 101.433 76.0273 101.975 70.4424C103.602 70.2794 105.147 69.9256 106.602 69.3825L102.921 101.229H98.7487C99.2205 96.5241 99.7338 91.7635 100.231 87.1574H100.232Z" fill="#B94700"/>
<path d="M116.982 51.9734C114.033 50.7657 113.751 48.9415 113.804 48.0716C115.009 48.7903 115.998 49.0428 116.049 49.0555C116.089 49.0656 116.129 49.0699 116.168 49.0699C116.386 49.0699 116.586 48.9221 116.641 48.7008C116.706 48.4398 116.547 48.1763 116.286 48.1105C116.25 48.1012 114.834 47.7287 113.409 46.6266C112.697 46.0751 112.107 45.4468 111.643 44.745C111.625 44.7087 111.604 44.6749 111.579 44.6445C110.848 43.4993 110.441 42.1616 110.367 40.644C110.364 40.595 110.355 40.5468 110.338 40.5004C109.734 38.8544 108.393 34.174 109.425 32.3051C109.642 31.9107 109.954 31.6742 110.376 31.5821C112.009 31.2283 112.466 32.3768 113.136 34.4367C113.581 35.8082 114.043 37.2253 115.135 38.085C115.138 38.0876 115.141 38.0901 115.144 38.0926C115.15 38.0969 115.155 38.1019 115.161 38.107C115.162 38.107 115.163 38.1078 115.164 38.1087C115.188 38.1264 115.213 38.1425 115.24 38.1551C115.241 38.156 115.244 38.1577 115.246 38.1585C115.272 38.1712 115.3 38.1822 115.329 38.1898C115.331 38.1898 115.332 38.1906 115.334 38.1914C115.344 38.194 116.421 38.4929 117.493 39.2995C118.89 40.3509 119.629 41.7393 119.688 43.4267C119.698 43.6953 119.924 43.9055 120.193 43.8963C120.462 43.887 120.673 43.6615 120.664 43.3929C120.595 41.4142 119.691 39.7226 118.052 38.5014C117.228 37.8883 116.419 37.5403 115.962 37.3748C116.076 34.6309 116.535 28.2876 117.533 26.5825C117.926 25.912 118.66 25.2735 119.543 25.4964C120.224 25.667 120.682 26.308 120.71 27.1272C120.777 29.0511 120.2 34.5777 120.043 36.0294C119.475 35.8546 118.906 35.7491 118.341 35.7153C118.071 35.6992 117.841 35.9036 117.825 36.1722C117.809 36.4407 118.014 36.6704 118.283 36.6865C122.332 36.9272 125.241 41.2816 125.269 41.3263C125.363 41.4691 125.519 41.5459 125.678 41.5459C125.77 41.5459 125.863 41.5206 125.945 41.4665C126.171 41.3196 126.234 41.0181 126.087 40.7934C126.066 40.7614 125.728 40.2496 125.124 39.5604C126.24 38.6973 129.449 36.2676 131.639 35.1444C132.503 34.701 133.246 34.766 133.677 35.3226C134.197 35.9948 134.198 37.3233 133.175 38.4617C131.185 40.6744 126.529 44.2417 126.481 44.278C126.361 44.37 126.29 44.5128 126.29 44.6648C126.29 44.6977 126.263 47.9855 124.361 49.3714C123.375 50.09 122.016 50.1838 120.324 49.6492C120.067 49.5681 119.792 49.71 119.711 49.9659C119.63 50.2218 119.772 50.4954 120.029 50.5765C120.827 50.829 121.569 50.9574 122.253 50.9641C121.546 51.807 119.873 53.1565 116.982 51.9725V51.9734Z" fill="white"/>
<path d="M123.956 38.3688C123.015 37.5116 122.03 36.8511 121.031 36.4027C122.031 33.9265 124.597 27.938 125.797 26.6728C126.186 26.2632 126.98 25.9862 127.943 26.5521C128.779 27.0428 129.574 28.1846 129.065 29.7858C128.24 32.3802 125.31 37.1628 124.332 38.7235C124.212 38.6061 124.088 38.4878 123.957 38.3696L123.956 38.3688Z" fill="white"/>
<path d="M44.6649 17.0325C45.0122 17.5815 46.1574 19.0679 49.0347 20.42C52.1891 21.9021 55.3367 22.5524 55.9465 22.6689C58.1471 24.0987 59.665 25.1958 60.5357 25.8511H51.785C46.2243 25.2828 39.2117 20.898 37.1051 17.6389C36.7155 17.0359 36.5207 16.5106 36.5291 16.096C37.5964 16.0554 40.8422 16.0385 44.6657 17.0325H44.6649Z" fill="#FF863D"/>
<path d="M90.8595 44.1791H29.5987L27.7378 26.8257H51.7562H62.9938H84.8616H93.4675L91.9792 44.1791H90.8552H90.8595ZM53.2165 40.4108C52.2797 39.7141 49.9029 38.8147 47.6108 40.394C47.2415 40.6482 47.1492 41.1532 47.4042 41.5223C47.6591 41.8905 48.1665 41.9834 48.5358 41.7283C50.4255 40.4269 52.1747 41.6608 52.2483 41.714C52.394 41.8221 52.5634 41.8744 52.732 41.8744C52.9802 41.8744 53.225 41.7613 53.3851 41.5476C53.6536 41.1887 53.5773 40.6794 53.2173 40.4117L53.2165 40.4108ZM75.3901 40.4108C74.4533 39.7141 72.0765 38.8147 69.7845 40.394C69.4151 40.6482 69.322 41.1532 69.5778 41.5223C69.8327 41.8905 70.3401 41.9825 70.7094 41.7283C72.5991 40.4261 74.3483 41.6608 74.422 41.714C74.5676 41.8221 74.737 41.8744 74.9056 41.8744C75.1538 41.8744 75.3986 41.7613 75.5587 41.5476C75.8272 41.1887 75.7509 40.6794 75.391 40.4117L75.3901 40.4108Z" fill="#FF914D"/>
<path d="M11.0436 38.3688C10.9132 38.4879 10.7887 38.6061 10.6692 38.7226C9.69092 37.1619 6.76103 32.3794 5.93603 29.785C5.42696 28.1837 6.22147 27.0419 7.0575 26.5513C8.01972 25.9854 8.81508 26.2633 9.20387 26.672C10.405 27.9371 12.9698 33.9257 13.9701 36.4019C12.9706 36.8512 11.9847 37.5107 11.0445 38.3688H11.0436Z" fill="white"/>
<path d="M62.5262 25.852H62.107C62.09 25.8326 62.0722 25.814 62.0519 25.7971C61.9155 25.6839 58.6384 22.9806 51.4945 18.7774C49.349 17.5148 47.1399 16.6888 45.1409 16.1492C45.1206 16.1424 45.0994 16.1365 45.0774 16.1323C43.5731 15.7294 42.189 15.4879 41.0455 15.3443C39.1583 15.107 37.6582 15.0918 36.818 15.1121C37.5837 13.1697 38.8585 11.7559 40.6161 10.9046C43.579 9.46808 47.7938 9.70202 52.8049 11.5811C57.2035 13.2305 59.9945 16.3155 61.5615 18.6127C62.926 20.6134 63.6265 22.3818 63.8569 23.0253C62.8651 24.1444 62.594 25.2296 62.5262 25.8528V25.852Z" fill="#FFC756"/>
<path d="M79.7659 117.971C79.9022 117.971 80.0327 117.914 80.1259 117.813C81.0881 116.767 81.5658 115.372 81.4735 113.886C81.4735 113.878 81.4726 113.871 81.4718 113.862C81.4616 113.774 81.4532 113.683 81.4447 113.591C81.3769 112.876 81.2922 111.985 80.5765 111.36C80.5096 111.302 80.4291 111.263 80.3419 111.248C80.0174 111.189 79.6922 111.128 79.3652 111.064C79.7701 110.527 80.5502 109.828 81.7378 110.14C83.564 110.618 83.3819 113.367 83.3793 113.394C83.359 113.662 83.5614 113.896 83.8299 113.916C83.8418 113.916 83.8545 113.917 83.8664 113.917C84.1196 113.917 84.3331 113.722 84.3526 113.466C84.3602 113.368 84.4627 111.795 83.7495 110.56C84.9463 110.198 87.9321 109.868 90.7697 114.111C91.7675 115.603 92.3401 117.576 92.4256 119.815C92.5086 121.982 92.1131 124.295 91.3101 126.327C90.6469 128.005 89.7109 129.485 88.6021 130.609C87.3951 131.831 86.0017 132.635 84.461 132.999C81.3829 133.725 78.6935 133.075 76.8894 131.168C75.252 129.439 74.5321 126.818 75.1377 124.795C75.5341 123.472 76.3718 122.577 77.561 122.206C79.123 121.719 81.1787 122.195 82.6771 123.389C82.8872 123.558 83.1947 123.523 83.3632 123.313C83.5318 123.104 83.4979 122.797 83.287 122.629C82.6814 122.146 82.0054 121.766 81.3032 121.499C81.7276 120.715 81.6488 119.81 81.5548 119.31C82.2714 118.838 82.7449 118.237 82.7788 118.194C82.9439 117.981 82.9041 117.676 82.6915 117.512C82.4781 117.348 82.1723 117.387 82.0071 117.598C81.6954 117.996 80.6781 119.006 79.7227 118.896C79.2297 118.838 78.7732 118.491 78.3598 117.861C78.8113 117.899 79.2695 117.935 79.7345 117.968C79.7455 117.968 79.7574 117.968 79.7684 117.968L79.7659 117.971Z" fill="#FF914D"/>
<path d="M80.6773 22.6698C81.2871 22.5524 84.4347 21.9021 87.5891 20.4208C90.4664 19.0687 91.6116 17.5823 91.9589 17.0334C95.7816 16.0394 99.0274 16.0562 100.095 16.0968C100.104 16.5114 99.91 17.0367 99.5195 17.6397C97.4129 20.8996 90.4004 25.2844 84.8396 25.852H76.0889C76.9597 25.1966 78.4784 24.0996 80.6781 22.6698H80.6773Z" fill="#FF863D"/>
<path d="M73.0887 25.852H63.5063C63.5791 25.3343 63.8442 24.4256 64.7624 23.4797C65.5917 22.6259 66.8487 22.9062 67.6356 23.212C67.1324 23.6173 66.8393 23.9991 66.8114 24.0371C66.6496 24.2524 66.6937 24.5573 66.9088 24.7186C67.1239 24.8799 67.4306 24.836 67.5924 24.6215C67.6051 24.6046 68.9722 22.8404 70.8331 23.2381C72.1562 23.5211 72.8168 25.0117 73.0887 25.852Z" fill="#FFC756"/>
<path d="M95.5774 15.3443C94.4407 15.487 93.0668 15.7269 91.5727 16.1255C91.5362 16.1306 91.4998 16.1407 91.4659 16.1542C89.4712 16.6947 87.2689 17.519 85.1293 18.7782C77.9854 22.9814 74.7083 25.6848 74.5719 25.7979C74.5516 25.8148 74.5338 25.8334 74.5168 25.8528H74.1103C73.9425 25.2464 73.5326 24.0768 72.6974 23.2272C72.8151 22.8708 73.5089 20.892 75.0632 18.6135C76.6302 16.3164 79.4211 13.2313 83.8198 11.5819C88.8308 9.70284 93.0448 9.4689 96.0086 10.9055C97.7653 11.7576 99.041 13.1713 99.8067 15.1129C98.9656 15.0926 97.4663 15.1078 95.5783 15.3452L95.5774 15.3443Z" fill="#FFC756"/>
<path d="M57.378 102.458C57.5347 102.754 57.6973 103.061 57.9506 103.313C57.9591 103.323 57.9684 103.331 57.9777 103.339C58.1725 103.505 58.3521 103.676 58.5257 103.842C58.746 104.052 58.973 104.267 59.2288 104.471C57.5203 105.528 55.5738 106.814 53.6104 108.271C50.8567 105.722 49.8648 103.536 49.5125 102.201H57.2391C57.2857 102.284 57.3314 102.369 57.3771 102.457L57.378 102.458Z" fill="#FFC756"/>
<path d="M31.3724 62.1221L30.843 45.1521H90.3597L88.9604 101.229H82.9871C82.9871 101.229 82.9863 101.229 82.9854 101.229H57.5211C57.5211 101.229 57.5194 101.229 57.5186 101.229H32.593L31.3732 62.1272C31.3732 62.1272 31.3732 62.1238 31.3732 62.1221H31.3724ZM65.1647 67.8641C64.8124 66.5052 63.48 65.0028 61.8596 64.8406C60.7017 64.7241 59.4549 65.2359 58.6062 66.1758C57.1916 67.7416 57.511 69.8386 58.4562 71.2219C58.9679 71.971 59.6811 72.5571 60.4646 72.873C60.9203 73.0571 61.3921 73.1483 61.8647 73.1483C62.3102 73.1483 62.7566 73.0672 63.1929 72.9042C63.4453 72.8096 63.5732 72.5293 63.4791 72.2784C63.3843 72.0268 63.1031 71.8992 62.8515 71.993C61.2709 72.5833 59.9309 71.6509 59.2635 70.6738C58.5333 69.6046 58.2716 68.0009 59.3321 66.827C59.9674 66.1243 60.922 65.724 61.7631 65.8085C62.9066 65.9233 63.9569 67.0896 64.2211 68.1073C64.2889 68.3674 64.5549 68.5236 64.8158 68.4569C65.0766 68.3894 65.2333 68.1242 65.1664 67.8641H65.1647ZM77.5162 52.8618C76.1863 50.9388 74.4008 49.8798 72.4873 49.8798C70.5739 49.8798 68.7883 50.9388 67.4585 52.8618C66.1668 54.7291 65.4561 57.2035 65.4561 59.8292C65.4561 62.4548 66.1676 64.9285 67.4585 66.7966C68.7883 68.7196 70.5739 69.7786 72.4873 69.7786C74.4008 69.7786 76.1863 68.7196 77.5162 66.7966C78.8079 64.9293 79.5185 62.4548 79.5185 59.8292C79.5185 57.2035 78.807 54.7299 77.5162 52.8618ZM44.9588 73.1483C44.9588 73.1483 44.9664 73.1483 44.9706 73.1483C45.6398 73.1331 46.1523 72.8662 46.5343 72.5031C46.6656 72.601 46.7968 72.6982 46.9298 72.7936C47.9014 74.2344 48.1047 76.643 48.3198 79.1918C48.5739 82.2025 48.8619 85.6161 50.4679 88.3532C50.7669 88.8625 51.1023 89.3337 51.4759 89.7678C51.4784 89.7712 51.4818 89.7737 51.4843 89.7771C53.4427 92.0498 56.4327 93.2988 60.5671 93.5817C60.9601 93.6088 61.3472 93.6223 61.7283 93.6223C65.1732 93.6223 68.0946 92.521 70.4248 90.3413C73.5792 87.3905 75.0505 82.966 75.7289 79.7736C76.2973 77.1015 76.4209 74.8694 76.4472 73.9557C77.2409 74.8982 78.0769 74.9488 78.1269 74.9505L78.1675 73.9785H78.1785C78.1447 73.9759 77.5238 73.9075 76.947 72.9954C76.947 72.9937 76.9461 72.9929 76.9453 72.9912C76.9368 72.9769 76.9283 72.9633 76.919 72.9498C76.7462 72.6669 76.5777 72.308 76.432 71.8486C76.3506 71.5927 76.0762 71.4508 75.8196 71.5319C75.5629 71.6129 75.4206 71.8866 75.5019 72.1425C75.6078 72.476 75.7264 72.7691 75.8534 73.0284C74.6727 73.6204 71.1533 75.2419 66.5878 76.0172C63.303 76.5754 60.1257 76.5931 57.1442 76.0695C53.4901 75.4277 50.1181 73.965 47.1179 71.7219C47.2924 71.3925 47.3974 71.0648 47.4448 70.8106C47.494 70.5463 47.3186 70.2929 47.0543 70.2439C46.7909 70.195 46.536 70.3689 46.486 70.6316C46.4741 70.6932 46.1777 72.1475 44.9495 72.1762C44.6801 72.1821 44.4667 72.4051 44.4734 72.6737C44.4794 72.9389 44.6971 73.1491 44.9613 73.1491L44.9588 73.1483ZM45.373 66.7966C46.7028 68.7196 48.4884 69.7786 50.4018 69.7786C52.3153 69.7786 54.1008 68.7196 55.4306 66.7966C56.7224 64.9293 57.433 62.4548 57.433 59.8292C57.433 57.2035 56.7215 54.7299 55.4306 52.8618C54.1008 50.9388 52.3153 49.8798 50.4018 49.8798C48.4884 49.8798 46.7028 50.9388 45.373 52.8618C44.0813 54.7299 43.3706 57.2035 43.3706 59.8292C43.3706 62.4548 44.0821 64.9285 45.373 66.7966Z" fill="#FF914D"/>
<path d="M50.4018 50.8527C51.525 50.8527 52.5778 51.3087 53.4808 52.1026C52.8303 51.6702 52.1154 51.4303 51.3649 51.4303C49.9834 51.4303 48.7213 52.2419 47.7591 53.5796L49.8741 55.4401H46.7519C46.2141 56.7779 45.9024 58.3648 45.9024 60.0673C45.9024 64.8094 48.3198 68.6588 51.3124 68.7035C51.0151 68.7702 50.711 68.8049 50.4018 68.8049C47.0628 68.8049 44.3464 64.7781 44.3464 59.8283C44.3464 54.8785 47.0628 50.8518 50.4018 50.8518V50.8527Z" fill="white"/>
<path d="M61.5979 77.4225C63.2894 77.4225 65.0216 77.2721 66.7826 76.9706C70.6925 76.3026 73.8011 75.0628 75.4554 74.3019C75.4477 74.4708 75.4367 74.6634 75.4223 74.8787C75.0166 75.2284 73.7359 76.268 71.7665 77.2721C69.5575 78.3979 66.0025 79.7086 61.6106 79.5617C57.2137 79.4139 53.9297 78.12 51.9494 77.061C50.1511 76.0991 49.072 75.1515 48.7603 74.861C48.6815 74.5004 48.5892 74.1533 48.4816 73.8239C51.0998 75.4243 53.9526 76.5011 56.9934 77.0323C58.4859 77.2932 60.0241 77.4233 61.5979 77.4233V77.4225Z" fill="white"/>
<path d="M58.6858 86.323C59.5582 86.3525 60.2977 86.5561 60.822 86.7554C59.9733 87.2072 59.1136 87.7756 58.2614 88.4909C58.0556 88.664 58.0294 88.9706 58.2021 89.1767C58.2987 89.2907 58.4368 89.3498 58.5757 89.3498C58.6866 89.3498 58.7985 89.3126 58.8899 89.2358C59.8996 88.3879 60.9635 87.7139 62.0765 87.214C62.1137 87.203 62.1493 87.1869 62.1824 87.1675C63.9908 86.3762 65.9296 86.0417 67.9794 86.1718C69.8158 86.2892 71.2448 86.768 71.8927 87.0223C71.2905 87.9673 70.5832 88.8557 69.754 89.6318C67.3721 91.858 64.3042 92.8605 60.6331 92.6088C56.6546 92.3369 54.133 91.1478 52.5059 89.4444C54.3736 87.2976 56.4522 86.2461 58.6858 86.3221V86.323Z" fill="#FF6201"/>
<path d="M73.4504 51.4303C72.0689 51.4303 70.8068 52.2419 69.8446 53.5796L71.9597 55.4401H68.8375C68.2996 56.7779 67.9879 58.3648 67.9879 60.0673C67.9879 64.8094 70.4053 68.6588 73.3979 68.7035C73.1006 68.7702 72.7965 68.8049 72.4873 68.8049C69.1483 68.8049 66.4319 64.7781 66.4319 59.8283C66.4319 54.8785 69.1483 50.8518 72.4873 50.8518C73.6105 50.8518 74.6634 51.3079 75.5663 52.1017C74.9158 51.6693 74.2009 51.4295 73.4504 51.4295V51.4303Z" fill="white"/>
<path d="M3.36106 35.1452C5.55149 36.2684 8.76005 38.6981 9.87559 39.5613C9.27166 40.2504 8.93454 40.7613 8.91336 40.7943C8.76598 41.0189 8.8295 41.3204 9.05481 41.4674C9.13697 41.5214 9.2293 41.5468 9.32078 41.5468C9.48002 41.5468 9.63587 41.4691 9.72989 41.3263C9.75869 41.2824 12.6674 36.9272 16.7162 36.6865C16.9856 36.6704 17.1906 36.4399 17.1745 36.1722C17.1584 35.9036 16.9263 35.6984 16.6586 35.7153C16.0937 35.749 15.5244 35.8546 14.9561 36.0294C14.8002 34.5777 14.2234 29.0511 14.2895 27.1272C14.3174 26.3072 14.7757 25.667 15.4567 25.4964C16.3401 25.2743 17.0754 25.9119 17.4675 26.5825C18.4653 28.2876 18.9236 34.6317 19.0379 37.3748C18.5814 37.5403 17.7716 37.8882 16.9483 38.5014C15.3085 39.7226 14.4055 41.4142 14.3361 43.3929C14.3267 43.6615 14.5377 43.8869 14.807 43.8962C15.0738 43.9081 15.3025 43.6952 15.3118 43.4267C15.3711 41.7401 16.1097 40.3509 17.5074 39.2995C18.5797 38.4929 19.6571 38.194 19.6673 38.1906C19.669 38.1906 19.6698 38.1897 19.6715 38.1889C19.7003 38.1804 19.7291 38.1703 19.7554 38.1568C19.7571 38.1568 19.7588 38.1551 19.7596 38.1543C19.7867 38.1408 19.8113 38.1247 19.835 38.107C19.8358 38.107 19.8375 38.1061 19.8384 38.1053C19.8443 38.1011 19.8494 38.096 19.8553 38.0909C19.8587 38.0884 19.8612 38.0859 19.8646 38.0833C20.9565 37.2236 21.4181 35.8065 21.8636 34.4349C22.5328 32.3751 22.9919 31.2266 24.6233 31.5804C25.0459 31.6716 25.3568 31.9081 25.5745 32.3034C26.607 34.174 25.2653 38.8535 24.6614 40.4987C24.6444 40.5451 24.6343 40.5933 24.6326 40.6423C24.5106 43.1446 23.4865 45.1571 21.59 46.6249C20.1543 47.7363 18.7271 48.1054 18.7135 48.1088C18.4526 48.1746 18.2942 48.439 18.3595 48.6991C18.4154 48.9195 18.6136 49.0673 18.8321 49.0673C18.8711 49.0673 18.9109 49.0622 18.9507 49.0529C19.0024 49.0403 19.9908 48.7869 21.1962 48.0682C21.2495 48.9364 20.9683 50.7623 18.0181 51.9708C15.1272 53.1548 13.4543 51.8053 12.747 50.9624C13.4306 50.9557 14.1726 50.8273 14.9713 50.5748C15.228 50.4937 15.3703 50.2201 15.289 49.9642C15.2077 49.7083 14.9332 49.5664 14.6766 49.6475C12.9825 50.1829 11.623 50.0892 10.6362 49.368C8.72956 47.9753 8.71007 44.696 8.71007 44.6631C8.71007 44.5119 8.63977 44.3692 8.51864 44.2763C8.47206 44.2408 3.81507 40.6727 1.82539 38.46C0.801332 37.3216 0.802175 35.9931 1.3231 35.3209C1.75424 34.7643 2.49709 34.6993 3.36106 35.1427V35.1452Z" fill="white"/>
<path d="M18.3883 52.8736C18.9693 52.6355 19.6198 52.3052 20.2153 51.8576C20.4982 52.7089 21.1081 54.2831 22.2024 56.0043C24.2573 59.2363 27.089 61.4769 30.4085 62.5046L30.6118 69.0227C28.1266 68.3978 25.8752 67.2366 23.9126 65.5627C22.2067 64.1076 20.7108 62.264 19.4665 60.0825C17.8106 57.1799 17.0423 54.4351 16.778 53.3373C17.2753 53.257 17.8123 53.1092 18.3883 52.8736Z" fill="#FFC756"/>
<path d="M51.4471 77.8963C53.5257 79.0136 56.9697 80.3783 61.5767 80.5337C61.8173 80.5422 62.0553 80.5456 62.2908 80.5456C66.5793 80.5456 70.0462 79.2458 72.2434 78.1218C73.5961 77.4292 74.6286 76.73 75.3046 76.2216C75.2004 77.186 75.0344 78.3456 74.7684 79.5929C74.3533 81.5379 73.6334 83.9583 72.3976 86.1761C71.7614 85.9117 70.1843 85.345 68.0845 85.2048C66.4488 85.0959 64.2838 85.2445 61.974 86.209C61.5013 85.9539 60.3324 85.4168 58.7722 85.3526C57.0138 85.28 54.4286 85.8205 51.8697 88.6944C49.8775 86.0477 49.5734 82.4542 49.2914 79.109C49.2109 78.1564 49.1321 77.2232 49.0144 76.3406C49.5895 76.7789 50.401 77.333 51.4471 77.8954V77.8963Z" fill="black"/>
<path d="M80.5689 102.202C78.381 103.138 74.7879 104.719 70.7289 106.664C66.3091 108.783 62.6999 110.682 59.7598 112.348C59.6396 112.365 59.5269 112.427 59.4481 112.525C55.2926 114.897 52.5118 116.789 50.6991 118.167C50.5145 117.312 50.1206 116.345 49.5116 115.252C49.2134 114.716 48.8467 114.285 48.4181 113.96C54.814 107.58 64.1127 102.744 65.1775 102.202H80.5697H80.5689Z" fill="#FFC756"/>
<path d="M78.4759 111.879C78.4818 111.88 78.4877 111.881 78.4937 111.882C79.0061 111.987 79.5152 112.087 80.0217 112.179C80.3647 112.551 80.4173 113.102 80.4723 113.683C80.4808 113.776 80.4901 113.868 80.4994 113.958C80.568 115.092 80.2343 116.156 79.5575 116.981C78.8672 116.931 78.1921 116.875 77.5306 116.811C77.5289 116.811 77.5272 116.811 77.5255 116.811C73.32 116.411 69.6608 115.744 66.1566 114.746C65.3689 114.531 64.5278 114.288 63.6825 113.951C62.7804 113.591 61.8554 113.222 60.9304 112.808C63.3919 111.433 65.8873 110.136 68.2005 108.984C71.7072 110.222 75.1547 111.193 78.4767 111.879L78.4759 111.879Z" fill="#FFC756"/>
<path d="M48.6586 115.725C49.6861 117.569 50.0435 118.951 49.7513 119.949C49.576 120.548 49.1542 121.03 48.4647 121.42C48.3427 120.97 48.1606 120.521 47.915 120.078C46.6978 117.878 45.2798 116.051 44.0432 114.671C44.8699 114.303 47.3813 113.433 48.6578 115.725H48.6586Z" fill="#FF914D"/>
<path d="M47.4923 123.943C46.9942 125.64 45.5365 127.025 44.4167 127.88C44.6378 126.558 44.1313 125.128 43.5544 124.011C42.8599 122.665 41.4123 120.489 38.4629 117.765C35.9345 115.431 33.0309 113.39 30.4957 112.168C28.6831 111.294 27.1813 110.894 26.0412 110.97C28.3112 108.011 30.5669 106.321 32.759 105.938C34.2972 105.67 35.8244 106.071 37.2982 107.131C39.2617 108.542 40.2298 110.219 40.1756 112.115C40.1358 113.526 39.531 114.524 39.5251 114.534C39.3845 114.763 39.4565 115.062 39.686 115.203C39.7656 115.252 39.8537 115.274 39.941 115.274C40.1053 115.274 40.2654 115.192 40.3577 115.042C40.3823 115.002 40.8498 114.229 41.0574 113.06C42.3101 114.183 45.0105 116.844 47.0603 120.548C47.6795 121.667 47.8243 122.808 47.4923 123.943Z" fill="#FF914D"/>
<path d="M26.3216 111.931C27.2541 111.931 28.5416 112.307 30.0714 113.045C32.5227 114.226 35.3399 116.208 37.7997 118.479C41.4419 121.842 44.9571 126.595 42.8785 128.924C42.1806 129.706 41.076 129.938 39.5963 129.613C37.1458 129.075 33.839 127.009 30.749 124.089C27.6794 121.187 25.4068 118.005 24.6707 115.577C24.2353 114.139 24.3548 113.058 25.0256 112.364C25.3051 112.074 25.7464 111.932 26.3207 111.932L26.3216 111.931Z" fill="black"/>
<path d="M0.549754 34.7297C1.11811 33.9966 2.27178 33.4933 3.8066 34.2804C5.34566 35.0692 7.31077 36.4356 8.78122 37.5158C7.48441 35.3563 5.65652 32.1294 5.0043 30.0797C4.36564 28.0705 5.32533 26.4389 6.5603 25.7135C7.74106 25.0201 9.08784 25.1366 9.91116 26.004C10.9107 27.0571 12.5497 30.5889 13.6889 33.218C13.4839 31.0433 13.2688 28.3653 13.3128 27.0951C13.3569 25.8308 14.104 24.8335 15.2161 24.5539C16.6247 24.2001 17.7377 25.1172 18.3086 26.0935C19.4022 27.9624 19.8316 33.9088 19.9697 36.4964C20.3856 35.8225 20.6625 34.9712 20.9327 34.1385C21.5519 32.2341 22.2533 30.0746 24.8282 30.6329C25.533 30.7857 26.0708 31.1911 26.4274 31.838C27.0517 32.9697 27.0924 34.8403 26.5477 37.4001C26.1962 39.052 25.7168 40.4404 25.6007 40.7664C25.4076 44.2273 23.6229 46.2955 22.1533 47.4221C22.133 47.4382 22.1118 47.4534 22.0915 47.4686C22.1609 47.7946 22.2592 48.5243 22.0102 49.3882C21.8111 50.0773 21.452 50.655 21.0107 51.1389C21.1758 51.7005 21.7713 53.5205 23.0418 55.5111C24.9299 58.4686 27.3939 60.471 30.3738 61.4726L29.8647 45.1529H29.1591C28.9101 45.1529 28.7009 44.9654 28.6738 44.718L26.7087 26.3908C26.6943 26.254 26.7383 26.1163 26.8306 26.0141C26.9229 25.9111 27.0551 25.8528 27.1932 25.8528H47.5084C42.7337 24.2001 38.0326 20.8777 36.2818 18.1676C35.616 17.1364 35.4026 16.237 35.6474 15.4921C35.6474 15.4896 35.6482 15.4879 35.6491 15.4853C35.6491 15.4828 35.6508 15.4811 35.6516 15.4786C35.6516 15.4786 35.6516 15.4769 35.6516 15.476C35.6516 15.476 35.6516 15.4752 35.6516 15.4744C36.4605 12.9281 37.986 11.0955 40.1858 10.0297C43.3952 8.47318 47.8768 8.6953 53.1445 10.6707C57.7964 12.4155 60.7365 15.6711 62.3848 18.0949C63.6071 19.8929 64.3109 21.4874 64.6421 22.3429C65.3435 21.9249 66.2176 21.8261 67.2129 22.0617C67.8177 22.2053 68.3293 22.4401 68.6173 22.5895C69.2805 22.2745 70.1013 22.0879 71.0347 22.288C71.3439 22.3539 71.6242 22.4629 71.8783 22.6022C72.1553 21.8438 72.8727 20.0965 74.2322 18.0958C75.8797 15.672 78.8206 12.4155 83.4725 10.6715C88.7402 8.69614 93.221 8.47487 96.4313 10.0305C98.631 11.0971 100.156 12.9289 100.965 15.4752C100.965 15.4752 100.965 15.476 100.965 15.4769C100.965 15.4769 100.965 15.4786 100.965 15.4794C100.965 15.482 100.967 15.4836 100.968 15.4862C100.968 15.4887 100.969 15.4904 100.97 15.4929C101.214 16.2378 101.002 17.1372 100.335 18.1684C98.5836 20.8785 93.8825 24.2017 89.1078 25.8536H93.9986C93.9986 25.8536 94.0062 25.8536 94.0096 25.8536C94.0206 25.8536 94.0316 25.8536 94.0435 25.8553C94.0486 25.8553 94.0536 25.8562 94.0596 25.857C94.0706 25.8587 94.0816 25.8604 94.0926 25.8621C94.0977 25.8629 94.1028 25.8646 94.1078 25.8655C94.1189 25.868 94.129 25.8705 94.14 25.8739C94.146 25.8756 94.151 25.8773 94.157 25.879C94.1663 25.8824 94.1765 25.8857 94.1858 25.89C94.1917 25.8925 94.1985 25.895 94.2044 25.8984C94.2129 25.9026 94.2213 25.9069 94.229 25.9111C94.2357 25.9145 94.2425 25.9187 94.2493 25.9221C94.2527 25.9237 94.2561 25.9254 94.2595 25.928L108.073 34.625C108.032 33.4435 108.195 32.5094 108.566 31.838C108.922 31.1911 109.461 30.7857 110.165 30.6329C112.74 30.0746 113.441 32.2332 114.061 34.1385C114.331 34.9712 114.608 35.8225 115.024 36.4964C115.162 33.9088 115.591 27.9624 116.685 26.0935C117.256 25.1172 118.369 24.2001 119.777 24.5539C120.89 24.8335 121.637 25.8308 121.68 27.0951C121.724 28.3653 121.509 31.0433 121.304 33.218C122.444 30.5898 124.083 27.0571 125.082 26.004C125.905 25.1366 127.251 25.0201 128.433 25.7135C129.668 26.4389 130.628 28.0705 129.989 30.0797C129.338 32.1285 127.509 35.3563 126.213 37.5158C127.683 36.4365 129.648 35.07 131.188 34.2804C132.722 33.4933 133.877 33.9966 134.444 34.7297C135.224 35.7372 135.286 37.5665 133.896 39.1128C132.051 41.1642 128.159 44.2104 127.255 44.9097C127.213 45.7804 126.924 48.7033 124.936 50.155C124.511 50.465 124.04 50.6863 123.525 50.8188C123.521 50.8281 123.518 50.8374 123.513 50.8459C123.491 50.8873 122.97 51.8669 121.857 52.6033C121.252 53.0028 120.401 53.3744 119.303 53.409C119.033 54.5981 118.069 58.2245 115.674 61.8729C113.987 64.4428 111.939 66.479 109.587 67.9248C108.955 68.3125 108.303 68.657 107.63 68.9594L103.838 101.771C103.81 102.017 103.601 102.202 103.353 102.202H83.0727C82.3527 102.498 77.2832 104.599 71.1423 107.544C70.5866 107.81 70.0115 108.089 69.4211 108.379C72.4543 109.412 75.4367 110.242 78.3226 110.853C78.8791 109.921 80.1369 108.716 81.98 109.2C82.4264 109.317 82.789 109.515 83.0846 109.763C83.5564 109.581 84.4839 109.314 85.6604 109.426C88.4336 109.689 90.408 111.826 91.5761 113.573C93.7631 116.843 94.0189 122.113 92.213 126.685C91.5024 128.484 90.4927 130.077 89.2925 131.293C87.9542 132.647 86.4032 133.541 84.6804 133.947C83.7783 134.16 82.9058 134.265 82.0707 134.265C79.7286 134.265 77.6881 133.437 76.1745 131.837C74.3102 129.868 73.497 126.858 74.1975 124.518C74.8209 122.437 76.2092 121.608 77.2646 121.279C78.2116 120.983 79.278 120.971 80.3292 121.209C80.6578 120.766 80.6748 120.179 80.629 119.759C80.3868 119.834 80.1318 119.88 79.8675 119.88C79.782 119.88 79.6956 119.875 79.6092 119.865C78.641 119.755 77.8211 119.045 77.1706 117.756C73.0134 117.347 69.3762 116.677 65.8907 115.684C65.08 115.464 64.2076 115.211 63.3165 114.855C62.1968 114.409 61.0414 113.947 59.8835 113.398C56.7021 115.213 53.6307 117.144 51.1481 119.049C51.0591 119.117 50.9549 119.149 50.8508 119.149C50.8397 119.149 50.8287 119.148 50.8177 119.147C50.8253 119.532 50.7821 119.89 50.6847 120.222C50.4289 121.095 49.8089 121.802 48.8424 122.323C48.7738 122.36 48.7001 122.378 48.6273 122.38C48.673 122.992 48.6053 123.606 48.4249 124.22C47.5236 127.286 44.0965 129.323 43.5434 129.636C42.8649 130.357 41.9273 130.725 40.7846 130.725C40.3467 130.725 39.8783 130.671 39.3836 130.562C36.768 129.988 33.2876 127.831 30.0748 124.794C26.8874 121.781 24.5174 118.441 23.7339 115.858C23.0647 113.65 23.6593 112.393 24.2912 111.72C27.0331 107.73 29.824 105.463 32.5879 104.98C34.3946 104.665 36.1708 105.123 37.8666 106.342C39.354 107.411 41.1006 109.222 41.1497 111.853C41.5063 112.148 42.3279 112.855 43.3486 113.922C43.5544 113.816 44.4768 113.369 45.5992 113.255C46.309 113.183 46.9544 113.257 47.5262 113.47C49.1559 111.821 50.9804 110.271 52.8176 108.866C51.3344 107.468 49.1414 105.006 48.5062 102.201H32.117C31.8535 102.201 31.6375 101.992 31.6291 101.73L30.6397 70.0303C27.8945 69.385 25.4135 68.1284 23.2604 66.289C21.4672 64.7562 19.8985 62.8205 18.5992 60.536C16.7975 57.369 16.0259 54.4537 15.7879 53.4107C14.6418 53.3955 13.7575 53.0146 13.135 52.6025C12.0211 51.8661 11.5002 50.8864 11.479 50.845C11.4739 50.8357 11.4705 50.8264 11.4663 50.818C10.9513 50.6854 10.4795 50.465 10.0552 50.1542C8.06717 48.7025 7.77833 45.7787 7.73683 44.9088C6.8322 44.2095 2.93924 41.1633 1.09525 39.112C-0.295579 37.5656 -0.232896 35.7364 0.547221 34.7288L0.549754 34.7297ZM9.20304 26.6728C8.81425 26.2632 8.01889 25.9862 7.05666 26.5521C6.22149 27.0427 5.42612 28.1846 5.93519 29.7858C6.7602 32.3802 9.69008 37.1628 10.6684 38.7235C10.7878 38.6061 10.9123 38.4878 11.0428 38.3696C11.9838 37.5124 12.9689 36.852 13.9684 36.4027C12.9681 33.9265 10.4024 27.938 9.20219 26.6728H9.20304ZM37.1043 17.6389C39.2108 20.8988 46.2234 25.2836 51.7842 25.8511H60.5349C59.6641 25.1958 58.1454 24.0987 55.9457 22.6689C55.3358 22.5515 52.1882 21.9012 49.0339 20.4199C46.1565 19.0678 45.0113 17.5815 44.664 17.0325C40.8405 16.0385 37.5947 16.0554 36.5274 16.0959C36.519 16.5106 36.7129 17.0359 37.1034 17.6389H37.1043ZM53.2902 20.9934C52.5753 20.5542 51.8113 20.0948 50.9981 19.6159C49.4667 18.7148 47.8946 18.04 46.3734 17.5367C46.9917 18.116 47.9658 18.8432 49.4498 19.5408C50.7898 20.1708 52.1467 20.648 53.2902 20.9942V20.9934ZM61.5606 18.6118C59.9936 16.3147 57.2026 13.2296 52.804 11.5802C47.793 9.70113 43.5781 9.4672 40.6152 10.9037C38.8585 11.7559 37.5829 13.1696 36.8171 15.1112C37.6574 15.0909 39.1575 15.1061 41.0447 15.3434C42.189 15.487 43.5722 15.7286 45.0765 16.1314C45.0977 16.1356 45.1189 16.1407 45.1401 16.1483C47.1391 16.6888 49.3481 17.5139 51.4937 18.7765C58.6375 22.9797 61.9147 25.6831 62.0511 25.7962C62.0714 25.8131 62.0892 25.8317 62.1061 25.8511H62.5254C62.5932 25.2278 62.8642 24.1426 63.8561 23.0236C63.6257 22.3801 62.9244 20.6116 61.5606 18.6109V18.6118ZM70.8331 23.2381C68.9722 22.8404 67.6051 24.6046 67.5923 24.6215C67.4306 24.8368 67.1248 24.8799 66.9088 24.7186C66.6928 24.5573 66.6496 24.2524 66.8114 24.0371C66.8402 23.9991 67.1324 23.6173 67.6355 23.212C66.8478 22.9062 65.5908 22.6258 64.7624 23.4797C63.8442 24.4255 63.58 25.3343 63.5063 25.852H73.0887C72.8168 25.0116 72.1562 23.5211 70.8331 23.2381ZM96.0077 10.9037C93.0448 9.4672 88.83 9.70113 83.8189 11.5802C79.4203 13.2296 76.6293 16.3147 75.0623 18.6118C73.508 20.8903 72.8143 22.8691 72.6966 23.2255C73.5309 24.0751 73.9417 25.2456 74.1094 25.8511H74.516C74.5329 25.8317 74.5507 25.8131 74.571 25.7962C74.7074 25.6831 77.9846 22.9797 85.1285 18.7765C87.2681 17.5173 89.4712 16.693 91.4651 16.1525C91.4998 16.139 91.5354 16.1297 91.5718 16.1238C93.066 15.7252 94.4399 15.4853 95.5766 15.3426C97.4638 15.1053 98.9639 15.0901 99.805 15.1104C99.0393 13.1679 97.7645 11.7542 96.0069 10.9029L96.0077 10.9037ZM83.3327 20.9934C84.4762 20.6471 85.8332 20.1699 87.1732 19.5399C88.6572 18.8423 89.6321 18.1152 90.2496 17.5359C88.7283 18.0392 87.1563 18.714 85.6248 19.6151C84.8117 20.0939 84.0476 20.5534 83.3327 20.9925V20.9934ZM99.5187 17.6389C99.9083 17.035 100.103 16.5097 100.095 16.0959C99.0274 16.0554 95.7816 16.0385 91.9581 17.0325C91.6108 17.5815 90.4656 19.0678 87.5882 20.4199C84.4339 21.9021 81.2863 22.5524 80.6765 22.6689C78.4759 24.0987 76.958 25.1958 76.0872 25.8511H84.8379C90.3987 25.2827 97.4113 20.8979 99.5178 17.6389H99.5187ZM84.8659 26.8249H62.998H51.7605H27.742L29.603 44.1783H91.9835L93.4717 26.8249H84.8659ZM94.3247 101.229L99.2256 47.9365L92.3367 45.152H91.3355L89.9362 101.229H94.3247ZM94.4212 27.177L92.9483 44.3497L99.3188 46.9247L100.767 31.1734L94.4212 27.1779V27.177ZM108.45 37.3992C108.332 36.8469 108.244 36.3275 108.18 35.8402L105.75 34.3099C105.235 38.862 104.775 43.4773 104.329 47.9491C104.297 48.2701 104.265 48.5935 104.232 48.9153C105.157 49.3223 106.11 49.6889 107.034 50.0427C107.852 50.3552 108.692 50.677 109.522 51.0308C109.771 49.7987 110.003 48.5977 110.246 47.336C110.392 46.581 110.539 45.8209 110.69 45.0482C110.013 43.946 109.495 42.5391 109.397 40.7664C109.281 40.4404 108.801 39.052 108.45 37.4001V37.3992ZM112.906 47.4677C112.886 47.4525 112.865 47.4373 112.844 47.4213C112.399 47.0793 111.924 46.6511 111.475 46.1241C111.384 46.592 111.294 47.0565 111.205 47.5193C110.922 48.9845 110.655 50.3687 110.359 51.8162C110.337 51.9252 110.279 52.0215 110.195 52.0916C110.174 52.1068 110.153 52.1211 110.131 52.1329C110.13 52.1329 110.129 52.1338 110.129 52.1346C110.123 52.138 110.117 52.1405 110.11 52.1431C110.11 52.1431 110.11 52.1431 110.109 52.1431C110.109 52.1431 110.109 52.1431 110.108 52.1431C110.108 52.1431 110.108 52.1431 110.107 52.1431C110.107 52.1431 110.107 52.1431 110.107 52.1431C110.107 52.1431 110.107 52.1431 110.106 52.1431C110.106 52.1431 110.106 52.1431 110.105 52.1431C110.044 52.1693 109.979 52.1819 109.913 52.1819H109.908C109.908 52.1819 109.906 52.1819 109.905 52.1819C109.905 52.1819 109.905 52.1819 109.904 52.1819C109.904 52.1819 109.902 52.1819 109.901 52.1819C109.874 52.1811 109.847 52.1777 109.819 52.1718C109.819 52.1718 109.819 52.1718 109.819 52.1718C109.819 52.1718 109.819 52.1718 109.818 52.1718C109.792 52.1659 109.768 52.1583 109.743 52.1481C109.736 52.1448 109.728 52.1414 109.72 52.138C109.69 52.1245 109.659 52.1118 109.63 52.0983L108.806 59.2287C109.726 58.4855 110.572 57.6064 111.332 56.5997C113.075 54.2941 113.878 51.9573 114.11 51.1972C113.634 50.6981 113.246 50.0951 113.036 49.3679C112.787 48.504 112.886 47.7743 112.955 47.4483L112.906 47.4677ZM107.684 60.0293L108.645 51.7183C107.991 51.4497 107.331 51.1972 106.685 50.9498C105.847 50.6288 104.983 50.2978 104.132 49.9329C103.736 53.8955 103.324 57.945 102.868 61.9498C104.341 61.6753 105.716 61.1787 106.978 60.4626C107.217 60.3266 107.453 60.1813 107.685 60.0293H107.684ZM129.065 29.7858C129.574 28.1846 128.779 27.0427 127.943 26.5521C126.98 25.9862 126.186 26.2641 125.797 26.6728C124.597 27.938 122.031 33.9265 121.031 36.4027C122.03 36.852 123.015 37.5116 123.956 38.3688C124.087 38.4878 124.211 38.6061 124.331 38.7226C125.309 37.1619 128.239 32.3793 129.064 29.7849L129.065 29.7858ZM122.253 50.965C121.569 50.9582 120.827 50.8298 120.029 50.5773C119.772 50.4962 119.63 50.2226 119.711 49.9667C119.792 49.7108 120.067 49.5689 120.323 49.65C122.016 50.1855 123.374 50.0917 124.361 49.3722C126.264 47.9863 126.29 44.6977 126.29 44.6656C126.29 44.5144 126.36 44.3717 126.481 44.2788C126.528 44.2433 131.185 40.6752 133.175 38.4625C134.198 37.3241 134.198 35.9956 133.677 35.3234C133.246 34.7668 132.503 34.7018 131.639 35.1452C129.449 36.2684 126.24 38.6981 125.124 39.5612C125.728 40.2504 126.066 40.7613 126.087 40.7943C126.234 41.0189 126.171 41.3204 125.945 41.4674C125.863 41.5214 125.77 41.5467 125.678 41.5467C125.519 41.5467 125.363 41.469 125.269 41.3272C125.241 41.2832 122.332 36.928 118.283 36.6873C118.014 36.6713 117.809 36.4407 117.825 36.173C117.841 35.9044 118.072 35.7 118.341 35.7161C118.906 35.7499 119.475 35.8554 120.043 36.0303C120.2 34.5785 120.776 29.0519 120.71 27.128C120.682 26.308 120.224 25.6679 119.543 25.4973C118.659 25.2751 117.925 25.9128 117.533 26.5833C116.535 28.2884 116.076 34.6326 115.962 37.3756C116.419 37.5411 117.228 37.8891 118.052 38.5022C119.692 39.7234 120.595 41.415 120.664 43.3937C120.673 43.6623 120.462 43.8878 120.193 43.8971C119.924 43.9064 119.698 43.6961 119.688 43.4275C119.629 41.741 118.89 40.3517 117.493 39.3003C116.42 38.4938 115.343 38.1948 115.334 38.1923C115.332 38.1923 115.331 38.1914 115.329 38.1906C115.301 38.1821 115.273 38.172 115.246 38.1593C115.243 38.1585 115.241 38.1568 115.24 38.1559C115.213 38.1424 115.188 38.1272 115.164 38.1095C115.163 38.1095 115.162 38.1086 115.161 38.1078C115.155 38.1036 115.15 38.0985 115.144 38.0934C115.14 38.0909 115.138 38.0884 115.135 38.0858C114.043 37.2261 113.581 35.809 113.136 34.4375C112.466 32.3777 112.008 31.2291 110.376 31.583C109.953 31.6742 109.642 31.9106 109.425 32.3059C108.393 34.1748 109.734 38.8552 110.338 40.5012C110.355 40.5477 110.365 40.5958 110.367 40.6448C110.441 42.1624 110.848 43.5001 111.579 44.6453C111.604 44.6757 111.626 44.7095 111.643 44.7458C112.107 45.4476 112.697 46.076 113.409 46.6274C114.834 47.7304 116.25 48.102 116.286 48.1113C116.547 48.1763 116.706 48.4406 116.641 48.7016C116.586 48.9229 116.386 49.0707 116.168 49.0707C116.129 49.0707 116.089 49.0656 116.049 49.0563C115.998 49.0436 115.009 48.7903 113.804 48.0724C113.751 48.9423 114.033 50.7673 116.982 51.9742C119.873 53.1582 121.546 51.8086 122.253 50.9658V50.965ZM114.844 61.3662C117.042 58.0269 118.009 54.6209 118.316 53.3516C117.793 53.2756 117.224 53.1244 116.612 52.8736C116.056 52.6464 115.438 52.3339 114.864 51.9159C114.506 52.9792 113.671 55.0677 112.084 57.1765C110.776 58.9154 109.227 60.3021 107.479 61.2978C105.293 62.5443 102.795 63.176 100.056 63.176C99.7863 63.176 99.5678 62.9581 99.5678 62.6896C99.5678 62.421 99.7863 62.2031 100.056 62.2031C100.674 62.2031 101.278 62.1685 101.868 62.1001C102.412 57.3471 102.893 52.5223 103.358 47.8529C103.819 43.2248 104.296 38.4422 104.834 33.7331L101.694 31.7561L95.3047 101.229H97.7687C98.2431 96.4886 98.7606 91.6925 99.262 87.0526C99.8465 81.6367 100.45 76.0416 100.987 70.5167C100.614 70.5361 100.236 70.5463 99.855 70.5463C99.7101 70.5463 99.5636 70.5446 99.4179 70.542C99.1485 70.537 98.9342 70.3149 98.9393 70.0463C98.9444 69.7777 99.1706 69.5658 99.4365 69.5691C103.046 69.6384 106.285 68.8099 109.064 67.1065C111.292 65.7409 113.236 63.8094 114.845 61.3662H114.844ZM106.602 69.3825C105.147 69.9255 103.602 70.2794 101.975 70.4424C101.433 76.0273 100.823 81.684 100.232 87.1574C99.7347 91.7643 99.2205 96.5241 98.7496 101.229H102.922L106.603 69.3825H106.602ZM79.721 118.898C80.6765 119.009 81.6937 117.999 82.0054 117.6C82.1706 117.388 82.4764 117.349 82.6898 117.514C82.9033 117.679 82.9423 117.984 82.7771 118.196C82.7432 118.24 82.2697 118.841 81.5531 119.313C81.648 119.813 81.7259 120.717 81.3016 121.502C82.0038 121.769 82.6797 122.149 83.2853 122.632C83.4954 122.8 83.5301 123.106 83.3615 123.316C83.193 123.526 82.8864 123.56 82.6755 123.392C81.1779 122.197 79.1221 121.722 77.5594 122.209C76.3701 122.58 75.5316 123.475 75.136 124.797C74.5304 126.821 75.2504 129.441 76.8877 131.171C78.6927 133.077 81.3812 133.727 84.4593 133.001C86.0001 132.638 87.3934 131.833 88.6004 130.611C89.7092 129.489 90.6452 128.008 91.3084 126.329C92.1114 124.297 92.5078 121.984 92.4239 119.818C92.3375 117.578 91.765 115.605 90.768 114.114C87.9304 109.87 84.9446 110.2 83.7478 110.563C84.461 111.797 84.3585 113.371 84.3509 113.469C84.3322 113.725 84.1179 113.92 83.8647 113.92C83.8528 113.92 83.8401 113.92 83.8283 113.918C83.5598 113.899 83.3582 113.665 83.3776 113.397C83.3793 113.369 83.5623 110.621 81.7361 110.142C80.5486 109.831 79.7684 110.53 79.3636 111.066C79.6905 111.13 80.0166 111.192 80.3402 111.25C80.4274 111.266 80.5087 111.305 80.5748 111.362C81.2906 111.987 81.3753 112.878 81.443 113.594C81.4515 113.686 81.46 113.776 81.4701 113.865C81.471 113.872 81.4718 113.88 81.4718 113.888C81.565 115.375 81.0864 116.769 80.1242 117.816C80.031 117.916 79.9006 117.973 79.7642 117.973C79.7532 117.973 79.7413 117.973 79.7303 117.973C79.2653 117.94 78.8079 117.904 78.3556 117.866C78.7689 118.496 79.2255 118.844 79.7185 118.901L79.721 118.898ZM63.6816 113.951C64.5269 114.288 65.3672 114.531 66.1558 114.746C69.66 115.744 73.3191 116.41 77.5246 116.811C77.5263 116.811 77.528 116.811 77.5297 116.811C78.1913 116.875 78.8663 116.931 79.5567 116.981C80.2343 116.156 80.5672 115.092 80.4986 113.958C80.4884 113.868 80.4799 113.776 80.4715 113.683C80.4164 113.102 80.3639 112.551 80.0208 112.179C79.5152 112.087 79.0053 111.987 78.4928 111.882C78.4869 111.881 78.4809 111.879 78.475 111.878C75.1538 111.193 71.7055 110.222 68.1988 108.983C65.8856 110.135 63.3902 111.432 60.9287 112.807C61.8529 113.221 62.7787 113.59 63.6808 113.95L63.6816 113.951ZM24.6715 115.576C25.4076 118.004 27.6802 121.186 30.7498 124.088C33.8398 127.008 37.1466 129.074 39.5971 129.612C41.0769 129.937 42.1814 129.706 42.8793 128.923C44.958 126.594 41.4419 121.841 37.8005 118.479C35.3399 116.207 32.5235 114.226 30.0722 113.044C28.5425 112.307 27.2558 111.93 26.3224 111.93C25.7473 111.93 25.3068 112.073 25.0273 112.362C24.3564 113.057 24.2362 114.138 24.6724 115.575L24.6715 115.576ZM41.0574 113.061C40.8507 114.23 40.3823 115.003 40.3577 115.043C40.2654 115.192 40.1053 115.275 39.941 115.275C39.8537 115.275 39.7657 115.252 39.686 115.203C39.4565 115.063 39.3845 114.763 39.5251 114.535C39.531 114.524 40.135 113.527 40.1756 112.116C40.229 110.22 39.2617 108.543 37.2983 107.131C35.8236 106.071 34.2964 105.67 32.759 105.939C30.566 106.321 28.3112 108.012 26.0412 110.971C27.1813 110.895 28.6831 111.296 30.4957 112.169C33.0309 113.391 35.9345 115.431 38.4629 117.766C41.4131 120.489 42.8599 122.666 43.5544 124.012C44.1313 125.13 44.6378 126.56 44.4167 127.881C45.5356 127.026 46.9942 125.641 47.4923 123.943C47.8243 122.809 47.6795 121.667 47.0603 120.548C45.0105 116.844 42.3101 114.184 41.0574 113.061ZM44.044 114.671C45.2807 116.051 46.6978 117.878 47.9158 120.078C48.1614 120.521 48.3435 120.97 48.4655 121.42C49.155 121.03 49.5768 120.548 49.7522 119.949C50.0444 118.951 49.6869 117.569 48.6595 115.724C47.383 113.433 44.8707 114.303 44.0449 114.671H44.044ZM48.4181 113.96C48.8467 114.285 49.2134 114.717 49.5116 115.252C50.1206 116.345 50.5145 117.312 50.6991 118.167C52.5118 116.789 55.2926 114.897 59.4481 112.525C59.5269 112.427 59.6387 112.366 59.7598 112.348C62.699 110.682 66.3091 108.783 70.7289 106.664C74.7879 104.718 78.381 103.138 80.5689 102.202H65.1766C64.1127 102.745 54.8132 107.58 48.4172 113.96H48.4181ZM63.1082 102.202H58.3478C58.4376 102.365 58.5257 102.507 58.6291 102.614C58.8374 102.793 59.0221 102.969 59.2008 103.138C59.4998 103.423 59.7836 103.692 60.1266 103.924C61.2955 103.219 62.317 102.638 63.109 102.202H63.1082ZM53.6112 108.272C55.5747 106.814 57.522 105.529 59.2296 104.472C58.9738 104.267 58.7468 104.052 58.5266 103.843C58.3529 103.677 58.1725 103.506 57.9785 103.339C57.9692 103.331 57.9599 103.323 57.9514 103.314C57.6982 103.062 57.5355 102.755 57.3788 102.459C57.3322 102.371 57.2874 102.285 57.2408 102.203H49.5141C49.8665 103.538 50.8584 105.724 53.6121 108.272L53.6112 108.272ZM32.593 101.229H57.5186C57.5186 101.229 57.5203 101.229 57.5211 101.229H82.9855C82.9855 101.229 82.9863 101.229 82.9872 101.229H88.9604L90.3597 45.152H30.843L31.3724 62.1221C31.3724 62.1221 31.3724 62.1254 31.3724 62.1271L32.5921 101.229H32.593ZM19.4657 60.0825C20.71 62.2639 22.2058 64.1076 23.9118 65.5627C25.8743 67.2365 28.1257 68.3978 30.6109 69.0227L30.4076 62.5046C27.0881 61.4768 24.2565 59.2363 22.2016 56.0043C21.1072 54.2831 20.4974 52.7089 20.2145 51.8576C19.619 52.3052 18.9693 52.6354 18.3874 52.8736C17.8114 53.1092 17.2744 53.257 16.7772 53.3372C17.0406 54.4351 17.8089 57.179 19.4657 60.0825ZM1.82539 38.4634C3.81507 40.676 8.47121 44.2433 8.51864 44.2796C8.63892 44.3717 8.71007 44.5144 8.71007 44.6664C8.71007 44.6994 8.72955 47.9787 10.6362 49.3713C11.623 50.0926 12.9825 50.1863 14.6766 49.6509C14.9332 49.5698 15.2076 49.7117 15.289 49.9676C15.3703 50.2235 15.228 50.4971 14.9713 50.5782C14.1726 50.8307 13.4306 50.959 12.747 50.9658C13.4543 51.8086 15.1272 53.1582 18.0181 51.9742C20.9683 50.7656 21.2495 48.9406 21.1962 48.0716C19.9908 48.7903 19.0024 49.0428 18.9507 49.0563C18.9109 49.0664 18.8711 49.0707 18.8321 49.0707C18.6136 49.0707 18.4154 48.9237 18.3595 48.7025C18.2934 48.4423 18.4526 48.178 18.7135 48.1121C18.7279 48.1087 20.1543 47.7388 21.59 46.6283C23.4865 45.1605 24.5106 43.148 24.6326 40.6456C24.6351 40.5966 24.6444 40.5485 24.6614 40.502C25.2653 38.8569 26.607 34.1782 25.5745 32.3067C25.3568 31.9115 25.0451 31.675 24.6233 31.5838C22.991 31.2299 22.5328 32.3785 21.8636 34.4383C21.4181 35.8098 20.9565 37.227 19.8646 38.0867C19.8612 38.0892 19.8587 38.0918 19.8553 38.0943C19.8494 38.0985 19.8443 38.1036 19.8384 38.1086C19.8375 38.1086 19.8358 38.1095 19.835 38.1103C19.8113 38.1281 19.7859 38.1441 19.7596 38.1576C19.7579 38.1576 19.7562 38.1593 19.7554 38.1602C19.7291 38.1737 19.7003 38.1838 19.6715 38.1923C19.6698 38.1923 19.669 38.1931 19.6673 38.1939C19.6563 38.1965 18.5788 38.4954 17.5073 39.3028C16.1097 40.3543 15.3711 41.7427 15.3118 43.43C15.3025 43.6986 15.0738 43.9106 14.807 43.8996C14.5376 43.8903 14.3267 43.6648 14.3361 43.3963C14.4055 41.4175 15.3093 39.7259 16.9483 38.5047C17.7716 37.8916 18.5814 37.5437 19.0379 37.3781C18.9236 34.6342 18.4653 28.291 17.4675 26.5859C17.0754 25.9153 16.3401 25.2768 15.4567 25.4998C14.7765 25.6704 14.3183 26.3114 14.2895 27.1306C14.2234 29.0544 14.7994 34.581 14.9561 36.0328C15.5244 35.858 16.0936 35.7524 16.6586 35.7186C16.9271 35.7017 17.1584 35.907 17.1745 36.1755C17.1905 36.4441 16.9856 36.6738 16.7162 36.6898C12.6674 36.9305 9.75869 41.2849 9.72989 41.3297C9.63587 41.4724 9.48002 41.5501 9.32078 41.5501C9.2293 41.5501 9.13697 41.5248 9.05481 41.4707C8.8295 41.3238 8.76598 41.0223 8.91336 40.7976C8.93453 40.7655 9.2725 40.2538 9.87559 39.5646C8.76004 38.7015 5.55148 36.2718 3.36106 35.1486C2.49709 34.7052 1.75423 34.7702 1.32309 35.3268C0.803017 35.999 0.802175 37.3275 1.82539 38.4659V38.4634Z" fill="black"/>
<path d="M72.4873 69.7778C70.5739 69.7778 68.7884 68.7187 67.4585 66.7957C66.1668 64.9276 65.4561 62.454 65.4561 59.8283C65.4561 57.2027 66.1676 54.7291 67.4585 52.8609C68.7884 50.9379 70.5739 49.8789 72.4873 49.8789C74.4008 49.8789 76.1863 50.9379 77.5162 52.8609C78.8079 54.7291 79.5186 57.2027 79.5186 59.8283C79.5186 62.454 78.807 64.9276 77.5162 66.7957C76.1863 68.7187 74.4008 69.7778 72.4873 69.7778ZM66.4319 59.8292C66.4319 64.779 69.1483 68.8057 72.4873 68.8057C72.7965 68.8057 73.1006 68.7711 73.3979 68.7044C70.4053 68.6596 67.9879 64.8111 67.9879 60.0682C67.9879 58.3656 68.2996 56.7787 68.8375 55.441H71.9596L69.8446 53.5805C70.8068 52.2428 72.0681 51.4312 73.4504 51.4312C74.2009 51.4312 74.9158 51.6702 75.5663 52.1034C74.6634 51.3095 73.6105 50.8535 72.4873 50.8535C69.1483 50.8535 66.4319 54.8802 66.4319 59.83V59.8292Z" fill="black"/>
<path d="M50.4018 49.8798C52.3144 49.8798 54.1008 50.9388 55.4307 52.8618C56.7224 54.7299 57.433 57.2035 57.433 59.8292C57.433 62.4548 56.7215 64.9285 55.4307 66.7966C54.1008 68.7196 52.3153 69.7786 50.4018 69.7786C48.4884 69.7786 46.7028 68.7196 45.373 66.7966C44.0813 64.9293 43.3706 62.4548 43.3706 59.8292C43.3706 57.2035 44.0821 54.7299 45.373 52.8618C46.7028 50.9388 48.4884 49.8798 50.4018 49.8798ZM50.4018 68.8049C50.711 68.8049 51.0151 68.7702 51.3124 68.7035C48.3198 68.6588 45.9024 64.8102 45.9024 60.0673C45.9024 58.3648 46.2141 56.7779 46.752 55.4402H49.8741L47.7591 53.5797C48.7213 52.2419 49.9825 51.4303 51.3649 51.4303C52.1154 51.4303 52.8303 51.6693 53.4808 52.1026C52.5779 51.3087 51.525 50.8527 50.4018 50.8527C47.0628 50.8527 44.3464 54.8794 44.3464 59.8292C44.3464 64.779 47.0628 68.8057 50.4018 68.8057V68.8049Z" fill="black"/>
<path d="M64.8141 68.4569C64.5532 68.5245 64.2872 68.3682 64.2194 68.1073C63.9552 67.0896 62.9049 65.9225 61.7614 65.8085C60.9203 65.724 59.9657 66.1235 59.3304 66.827C58.2699 68.0009 58.5316 69.6046 59.2618 70.6738C59.9292 71.6509 61.2692 72.5824 62.8498 71.993C63.1022 71.8984 63.3834 72.0267 63.4774 72.2784C63.5723 72.5301 63.4436 72.8105 63.1912 72.9042C62.7549 73.0672 62.3077 73.1483 61.863 73.1483C61.3904 73.1483 60.9186 73.0562 60.4629 72.873C59.6794 72.5571 58.9662 71.971 58.4545 71.2219C57.5093 69.8386 57.1899 67.7416 58.6045 66.1758C59.4532 65.2367 60.7 64.7249 61.8579 64.8406C63.4783 65.0028 64.8107 66.5052 65.163 67.864C65.2308 68.1242 65.0733 68.3893 64.8124 68.4569H64.8141Z" fill="black"/>
<path d="M44.9478 72.1754C46.176 72.1467 46.4716 70.6932 46.4843 70.6307C46.5343 70.3672 46.7893 70.1941 47.0527 70.2431C47.3178 70.2921 47.4923 70.5463 47.4432 70.8098C47.3957 71.064 47.2907 71.3917 47.1162 71.721C50.1164 73.9641 53.4884 75.4268 57.1425 76.0687C60.1241 76.5923 63.3013 76.5745 66.5861 76.0163C71.1516 75.241 74.6719 73.6195 75.8518 73.0275C75.7247 72.7682 75.6061 72.4752 75.5003 72.1416C75.4189 71.8857 75.5612 71.6121 75.8179 71.531C76.0754 71.4499 76.349 71.5918 76.4303 71.8477C76.576 72.3071 76.7445 72.6661 76.9173 72.949C76.9267 72.9625 76.9351 72.976 76.9436 72.9904C76.9436 72.992 76.9444 72.9929 76.9453 72.9946C77.5221 73.9058 78.143 73.9751 78.1769 73.9785H78.1659L78.1252 74.9497C78.0752 74.948 77.2392 74.8965 76.4455 73.9548C76.4193 74.8686 76.2956 77.1007 75.7273 79.7728C75.0488 82.9651 73.5775 87.3896 70.4231 90.3404C68.093 92.5201 65.1715 93.6214 61.7267 93.6214C61.3463 93.6214 60.9593 93.6079 60.5654 93.5809C56.431 93.298 53.4402 92.0489 51.4827 89.7763C51.4801 89.7729 51.4767 89.7704 51.4742 89.767C51.1007 89.3329 50.7652 88.8616 50.4662 88.3524C48.8602 85.6153 48.5723 82.2025 48.3181 79.1909C48.103 76.6421 47.8997 74.2343 46.9282 72.7927C46.796 72.6973 46.6639 72.601 46.5326 72.5022C46.1506 72.8654 45.6373 73.1322 44.969 73.1474C44.9647 73.1474 44.9614 73.1474 44.9571 73.1474C44.6928 73.1474 44.476 72.9371 44.4692 72.672C44.4633 72.4034 44.6759 72.1804 44.9453 72.1745L44.9478 72.1754ZM60.6332 92.6097C64.3042 92.8613 67.3721 91.8589 69.754 89.6327C70.5841 88.8566 71.2905 87.9681 71.8927 87.0231C71.2448 86.768 69.8158 86.29 67.9795 86.1726C65.9296 86.0417 63.9908 86.3762 62.1824 87.1684C62.1485 87.1878 62.1129 87.2038 62.0765 87.2148C60.9626 87.7148 59.8988 88.3887 58.89 89.2366C58.7985 89.3135 58.6867 89.3506 58.5757 89.3506C58.4368 89.3506 58.2987 89.2915 58.2022 89.1775C58.0285 88.9723 58.0548 88.6649 58.2615 88.4917C59.1136 87.7764 59.9733 87.2072 60.822 86.7562C60.2977 86.5569 59.5583 86.3534 58.6858 86.3238C56.4522 86.2478 54.3736 87.2993 52.5059 89.4461C54.1322 91.1495 56.6538 92.3386 60.6332 92.6105V92.6097ZM51.8698 88.6944C54.4286 85.8205 57.0138 85.28 58.7722 85.3526C60.3325 85.4159 61.5014 85.9531 61.974 86.209C64.2839 85.2445 66.4489 85.095 68.0845 85.2048C70.1843 85.345 71.7615 85.9125 72.3976 86.176C73.6334 83.9583 74.3542 81.5387 74.7684 79.5929C75.0344 78.3455 75.2004 77.186 75.3046 76.2215C74.6287 76.7291 73.5961 77.4292 72.2434 78.1217C70.0462 79.2458 66.5793 80.5455 62.2908 80.5455C62.0553 80.5455 61.8173 80.5413 61.5767 80.5337C56.9697 80.3783 53.5249 79.0136 51.4471 77.8962C50.401 77.3338 49.5895 76.7798 49.0144 76.3415C49.133 77.224 49.2118 78.1572 49.2914 79.1098C49.5734 82.455 49.8775 86.0477 51.8698 88.6953V88.6944ZM48.7594 74.8601C49.0712 75.1507 50.1503 76.0982 51.9485 77.0602C53.9289 78.1192 57.212 79.413 61.6098 79.5608C66.0016 79.7086 69.5575 78.3979 71.7657 77.2713C73.735 76.2671 75.0158 75.2284 75.4215 74.8779C75.4359 74.6625 75.446 74.47 75.4545 74.3011C73.8003 75.062 70.6917 76.3018 66.7818 76.9698C65.0208 77.2704 63.2886 77.4216 61.5971 77.4216C60.0233 77.4216 58.4851 77.2916 56.9926 77.0306C53.9518 76.4994 51.0981 75.4226 48.4808 73.8222C48.5884 74.1524 48.6807 74.4987 48.7594 74.8593V74.8601Z" fill="black"/>
<path d="M74.9056 41.8736C74.7371 41.8736 74.5676 41.8212 74.422 41.7131C74.3483 41.6599 72.5991 40.4252 70.7094 41.7275C70.3401 41.9817 69.8336 41.8896 69.5778 41.5214C69.3228 41.1532 69.4151 40.6482 69.7845 40.3931C72.0765 38.8139 74.4533 39.7141 75.3901 40.41C75.7501 40.6777 75.8263 41.187 75.5578 41.5459C75.3977 41.7596 75.1529 41.8728 74.9048 41.8728L74.9056 41.8736Z" fill="black"/>
<path d="M52.7312 41.8736C52.5635 41.8736 52.3932 41.8212 52.2475 41.7131C52.1738 41.6599 50.4247 40.4252 48.535 41.7275C48.1657 41.9817 47.6591 41.8896 47.4033 41.5214C47.1484 41.1532 47.2407 40.6482 47.61 40.3931C49.9021 38.8139 52.2789 39.7141 53.2157 40.41C53.5757 40.6777 53.6519 41.187 53.3834 41.5459C53.2233 41.7596 52.9785 41.8728 52.7303 41.8728L52.7312 41.8736Z" fill="black"/>
<path d="M88.9596 101.229H82.9863C82.9863 101.229 82.9855 101.229 82.9846 101.229H58.3639C66.6691 99.2528 74.8006 96.3653 78.7554 92.233C87.9762 82.5986 88.8893 49.221 88.9664 45.1521H90.3589L88.9596 101.229Z" fill="#B94700"/>
<path d="M91.9835 44.1791H88.7224C91.2559 38.8518 91.7946 32.756 92.1453 26.8257H93.4726L91.9843 44.1791H91.9835Z" fill="#B94700"/>
<path d="M36.818 15.1121C36.9755 14.7126 37.1551 14.3376 37.3558 13.9829C37.9115 13.912 38.4781 13.9019 39.038 13.9179C45.5856 14.1046 51.6791 17.573 58.2199 17.9201C59.0822 17.9658 60.0029 17.9396 60.728 17.4776C61.0372 17.8695 61.3141 18.2504 61.5606 18.6127C62.9252 20.6134 63.6257 22.3818 63.8561 23.0253C62.8642 24.1443 62.5932 25.2296 62.5254 25.8528H62.1061C62.0892 25.8334 62.0714 25.8148 62.0511 25.7979C61.9147 25.6848 58.6375 22.9814 51.4936 18.7782C49.3481 17.5156 47.1391 16.6897 45.1401 16.15C45.1197 16.1433 45.0986 16.1373 45.0765 16.1331C43.5722 15.7303 42.1882 15.4887 41.0447 15.3452C39.1575 15.1079 37.6574 15.0927 36.8171 15.1129L36.818 15.1121Z" fill="#FF863D"/>
<path d="M77.3442 15.8308C77.3349 16.8653 77.7135 17.8931 78.5606 18.4573C79.3153 18.9598 80.3021 19.0045 81.1847 18.7934C82.0673 18.5823 82.8737 18.1397 83.6758 17.7183C88.503 15.1813 93.996 13.1705 99.3332 14.1012C99.5068 14.4204 99.6644 14.7574 99.8041 15.1129C98.963 15.0927 97.4638 15.1079 95.5758 15.3452C94.439 15.4879 93.0652 15.7277 91.571 16.1264C91.5346 16.1314 91.4981 16.1416 91.4643 16.1551C89.4695 16.6956 87.2672 17.5198 85.1276 18.779C77.9837 22.9823 74.7066 25.6856 74.5702 25.7988C74.5499 25.8157 74.5321 25.8343 74.5151 25.8537H74.1086C73.9409 25.2473 73.5309 24.0776 72.6957 23.228C72.8135 22.8716 73.5072 20.8929 75.0615 18.6143C75.6451 17.758 76.3998 16.7927 77.3434 15.8325L77.3442 15.8308Z" fill="#FF863D"/>
<path d="M63.8485 24.7617C64.8192 24.9078 65.8364 24.7634 66.714 24.331C66.714 24.4779 66.7817 24.6232 66.9088 24.7178C67.1129 24.8706 67.3984 24.8394 67.5652 24.6519C67.7092 24.8132 67.9041 24.9382 68.1124 24.9973C68.5681 25.1274 69.0569 25.0176 69.5083 24.8732C70.0462 24.7017 70.6035 24.4501 70.8924 23.9662C71.011 23.7677 71.0559 23.5228 71.0313 23.2905C72.2222 23.6723 72.8295 25.0539 73.0879 25.8503H63.5054C63.5435 25.5784 63.6367 25.1975 63.8476 24.7609L63.8485 24.7617Z" fill="#FF863D"/>
<path d="M17.2786 55.099C18.5915 57.1968 20.112 59.1578 21.9653 60.7911C24.3463 62.8898 27.3312 64.415 30.4771 64.7173L30.6118 69.0219C28.1266 68.397 25.8752 67.2357 23.9126 65.5619C22.2067 64.1067 20.7108 62.2631 19.4665 60.0817C18.4077 58.2254 17.7123 56.435 17.2786 55.0981V55.099Z" fill="#FF863D"/>
<path d="M109.016 63.2377C103.492 66.2417 99.3171 63.9361 100.208 63.1735C102.887 63.1507 105.333 62.5207 107.478 61.2978C109.226 60.3013 110.775 58.9154 112.084 57.1765C113.67 55.0677 114.504 52.9792 114.863 51.9159C115.436 52.3339 116.055 52.6464 116.611 52.8736C116.745 52.9285 116.876 52.9775 117.006 53.0231C116.286 54.8667 114.084 60.4811 109.015 63.2377H109.016Z" fill="#FFC756"/>
<path d="M18.4958 45.6529C20.6736 43.9993 22.2456 41.6321 23.1909 39.0714C24.0761 36.6755 24.4344 34.1115 24.481 31.5568C24.5267 31.5644 24.5741 31.5737 24.6224 31.5838C25.0451 31.675 25.3559 31.9115 25.5736 32.3067C26.6062 34.1774 25.2645 38.8569 24.6605 40.5021C24.6436 40.5485 24.6334 40.5967 24.6317 40.6456C24.5098 43.148 23.4857 45.1605 21.5892 46.6283C20.1535 47.7397 18.7262 48.1088 18.7127 48.1121C18.4518 48.178 18.2934 48.4424 18.3586 48.7025C18.4145 48.9229 18.6127 49.0707 18.8313 49.0707C18.8702 49.0707 18.91 49.0656 18.9498 49.0563C19.0015 49.0437 19.99 48.7903 21.1953 48.0716C21.2461 48.8925 20.9963 50.5689 18.4755 51.7707C18.4924 51.7411 18.5094 51.7124 18.5246 51.682C18.9964 50.7885 18.9126 49.4305 17.9715 49.0572C17.6259 48.9204 17.238 48.9482 16.8746 48.8714C16.5112 48.7945 16.1267 48.5403 16.1191 48.1696C16.1157 48.0159 16.1792 47.8689 16.2529 47.7338C16.7433 46.8301 17.6759 46.2753 18.495 45.6529H18.4958Z" fill="#B94700"/>
<path d="M17.4667 26.5833C18.3874 28.1576 18.849 33.6833 19.0049 36.6823C18.3222 36.7692 17.5954 36.7236 16.8932 36.6417C17.0694 36.5598 17.1863 36.3774 17.1736 36.1722C17.1575 35.9036 16.9254 35.6984 16.6578 35.7153C16.6002 35.7186 16.5417 35.7237 16.4841 35.7279C16.8416 32.3051 16.6628 28.8273 15.9564 25.4584C16.6146 25.5252 17.1516 26.0429 17.4667 26.5825V26.5833Z" fill="#B94700"/>
<path d="M7.47848 26.3519C8.24844 26.0733 8.8727 26.3258 9.20219 26.6729C10.4033 27.938 12.9681 33.9266 13.9684 36.4027C13.2891 36.7076 12.6166 37.1113 11.9593 37.607C11.1987 33.6175 9.66806 29.7757 7.47764 26.3519H7.47848Z" fill="#B94700"/>
<path d="M3.36105 35.1452C5.55148 36.2684 8.76004 38.6982 9.87558 39.5613C9.27165 40.2504 8.93453 40.7614 8.91335 40.7943C8.76597 41.0189 8.82949 41.3204 9.0548 41.4674C9.0548 41.4674 9.05565 41.4674 9.0565 41.4682C9.0421 41.4758 9.02854 41.4834 9.0133 41.4893C8.67025 41.6245 8.3433 41.2782 8.12815 40.9792C6.39174 38.563 4.06493 36.5733 1.40949 35.2221C1.84994 34.7601 2.55214 34.7297 3.3602 35.1444L3.36105 35.1452Z" fill="#B94700"/>
<path d="M120.029 50.5773C120.827 50.8298 121.569 50.9582 122.253 50.965C121.546 51.8078 119.873 53.1574 116.982 51.9733C116.869 51.9269 116.762 51.8796 116.658 51.8323C117.076 51.774 117.488 51.6879 117.876 51.5224C118.541 51.2386 119.136 50.6643 119.217 49.9473C119.277 49.4245 119.088 48.8064 119.454 48.428C119.63 48.2464 119.891 48.1789 120.139 48.1324C120.835 48.0024 121.551 47.9796 122.237 47.8056C122.923 47.6308 123.605 47.2718 123.951 46.6553C124.39 45.8741 124.194 44.8776 124.537 44.0508C124.775 43.4799 125.245 43.0433 125.703 42.6278C128.358 40.2208 131.077 37.8823 133.851 35.6139C134.182 36.3343 134.067 37.471 133.176 38.4634C131.186 40.676 126.53 44.2433 126.482 44.2797C126.362 44.3717 126.291 44.5144 126.291 44.6665C126.291 44.6994 126.264 47.9872 124.362 49.373C123.375 50.0917 122.017 50.1855 120.324 49.6509C120.068 49.5698 119.793 49.7117 119.712 49.9676C119.631 50.2235 119.773 50.4971 120.03 50.5782L120.029 50.5773Z" fill="#B94700"/>
<path d="M110.81 31.523C112.098 31.4554 112.531 32.5728 113.136 34.4383C113.524 35.63 113.923 36.8554 114.737 37.721C114.54 37.8697 114.245 37.8815 114.01 37.7861C113.73 37.6737 113.517 37.4457 113.322 37.216C111.96 35.6114 111.079 33.6073 110.809 31.523H110.81Z" fill="#B94700"/>
<path d="M119.544 25.4973C120.224 25.6679 120.683 26.3089 120.711 27.1281C120.777 29.0519 120.201 34.5785 120.044 36.0303C119.498 35.8622 118.95 35.7592 118.407 35.7212C118.344 35.3605 118.374 34.9484 118.43 34.5903C118.9 31.5678 119.224 28.5232 119.403 25.4694C119.449 25.4761 119.496 25.4854 119.543 25.4973H119.544Z" fill="#B94700"/>
<path d="M123.889 37.3334C125.512 33.8936 126.99 30.3863 128.324 26.8257C128.994 27.4068 129.495 28.432 129.064 29.785C128.239 32.3794 125.309 37.1619 124.331 38.7226C124.211 38.6052 124.087 38.487 123.956 38.3688C123.856 38.2767 123.755 38.188 123.653 38.1011C123.657 37.8342 123.774 37.5774 123.889 37.3334Z" fill="#B94700"/>
<path d="M49.7547 115.703C50.3476 115.028 51.0761 114.448 51.8223 113.943C55.1452 111.698 59.0932 110.473 62.3255 108.1C63.2547 107.419 64.1458 106.605 64.5752 105.538C64.9496 104.606 64.8793 103.444 64.2576 102.685C64.7082 102.443 65.0258 102.28 65.1766 102.202H80.5689C78.381 103.138 74.7879 104.719 70.7289 106.664C66.3091 108.783 62.6999 110.682 59.7598 112.348C59.6396 112.365 59.5269 112.427 59.4481 112.525C55.2926 114.897 52.5118 116.789 50.6991 118.167C50.5399 117.431 50.2265 116.614 49.7538 115.703H49.7547Z" fill="#FF863D"/>
<path d="M49.626 102.202H57.2399C57.2865 102.285 57.3323 102.37 57.378 102.458C57.5347 102.754 57.6973 103.061 57.9506 103.313C57.9591 103.323 57.9684 103.331 57.9777 103.339C58.1725 103.505 58.3521 103.676 58.5257 103.842C58.746 104.052 58.973 104.267 59.2288 104.471C58.3487 105.016 57.4051 105.621 56.4285 106.28C55.8347 105.75 55.2392 105.221 54.6014 104.745C53.2157 103.709 51.514 102.911 49.8055 103.089C49.7217 102.877 49.6522 102.676 49.5946 102.489L49.6243 102.202H49.626Z" fill="#FF863D"/>
<path d="M68.1997 108.983C71.7064 110.222 75.1538 111.192 78.4759 111.879C78.4818 111.88 78.4877 111.881 78.4937 111.882C79.0061 111.987 79.5152 112.087 80.0217 112.179C80.3648 112.551 80.4173 113.102 80.4723 113.683C80.4808 113.776 80.4901 113.868 80.4994 113.958C80.5155 114.221 80.5088 114.481 80.4817 114.735C80.3123 114.738 80.1428 114.74 79.9734 114.736C77.9423 114.703 75.9407 114.269 73.9688 113.786C72.0198 113.308 70.0759 112.778 68.2217 112.013C67.1816 111.583 66.1719 111.08 65.202 110.51C66.2227 109.979 67.2281 109.468 68.2005 108.983H68.1997Z" fill="#FF863D"/>
<path d="M47.5626 117.976C48.2207 117.901 48.8772 117.699 49.4413 117.36C49.8479 118.415 49.9504 119.271 49.7522 119.948C49.5768 120.547 49.155 121.029 48.4655 121.419C48.3436 120.969 48.1614 120.521 47.9158 120.077C47.5118 119.347 47.0849 118.658 46.6503 118.012C46.9553 118.02 47.2594 118.01 47.5634 117.975L47.5626 117.976Z" fill="#B94700"/>
<path d="M30.4966 112.168C28.6839 111.294 27.1821 110.894 26.042 110.97C26.3732 110.538 26.7044 110.135 27.0348 109.757C30.6939 110.524 34.1481 112.266 36.9171 114.774C38.8077 116.486 40.4568 118.591 42.804 119.597C43.5714 119.925 44.4506 120.123 45.2375 119.843C45.6237 119.706 45.9642 119.421 46.1794 119.073C46.4826 119.544 46.7782 120.036 47.062 120.548C47.6812 121.667 47.826 122.809 47.494 123.943C46.9959 125.641 45.5382 127.026 44.4184 127.881C44.6395 126.559 44.133 125.129 43.5561 124.012C42.8616 122.666 41.414 120.489 38.4646 117.766C35.9362 115.431 33.0326 113.391 30.4974 112.169L30.4966 112.168Z" fill="#B94700"/>
<path d="M78.8477 131.878C81.255 131.472 83.5665 130.39 85.3122 128.687C87.058 126.985 88.2099 124.655 88.3505 122.224C88.4149 121.107 88.2709 119.983 87.9956 118.898C87.7263 117.838 87.3019 116.768 86.4811 116.044C85.6604 115.319 84.3568 115.049 83.4522 115.665C83.0778 114.826 82.3341 114.172 81.4709 113.856C81.4616 113.77 81.4532 113.682 81.4447 113.591C81.3769 112.876 81.2922 111.985 80.5765 111.36C80.5096 111.302 80.4291 111.263 80.3419 111.248C80.0174 111.189 79.6922 111.128 79.3652 111.064C79.7701 110.527 80.5502 109.828 81.7378 110.14C83.564 110.618 83.3819 113.367 83.3793 113.394C83.359 113.662 83.5614 113.896 83.8299 113.916C83.8418 113.916 83.8545 113.917 83.8664 113.917C84.1196 113.917 84.3331 113.722 84.3526 113.466C84.3602 113.368 84.4627 111.795 83.7495 110.56C84.9463 110.198 87.9321 109.868 90.7697 114.111C91.7675 115.603 92.3401 117.576 92.4256 119.815C92.5086 121.982 92.1131 124.295 91.3101 126.327C90.6469 128.005 89.7109 129.485 88.6021 130.609C87.3951 131.831 86.0017 132.635 84.461 132.999C81.8911 133.605 79.5922 133.251 77.8524 132.008C78.1853 131.976 78.5174 131.933 78.8494 131.877L78.8477 131.878Z" fill="#B94700"/>
<path d="M63.5096 72.4727C63.513 72.4085 63.5037 72.3426 63.4791 72.2784C63.3843 72.0268 63.1031 71.8992 62.8515 71.993C61.2709 72.5833 59.9309 71.6509 59.2635 70.6738C58.6426 69.7643 58.3605 68.4679 58.9433 67.3784C59.4269 67.7289 59.7759 68.6942 60.1825 69.016C60.9313 69.6089 61.8613 69.9112 62.7371 70.2929C63.0921 70.4475 63.4571 70.629 63.6816 70.9449C63.9171 71.2751 63.9594 71.7329 63.7892 72.1011C63.7239 72.2429 63.6274 72.3688 63.5105 72.4727H63.5096Z" fill="#B94700"/>
<path d="M51.7579 26.8249H62.9955H71.4159C53.6866 27.1222 29.7122 27.6483 29.3167 27.8949C28.8042 28.2141 30.0129 39.867 30.4788 44.1783H29.5979L27.737 26.8249H51.7554H51.7579Z" fill="white"/>
<path d="M31.3724 62.1272C31.3724 62.1272 31.3724 62.1238 31.3724 62.1221L30.843 45.1521H31.8451L33.5383 101.229H32.5921L31.3724 62.1272Z" fill="white"/>
<path d="M19.8282 52.1262C19.9586 52.0409 20.0882 51.9522 20.2153 51.8568C20.4982 52.7081 21.1081 54.2823 22.2024 56.0035C24.2573 59.2355 27.089 61.476 30.4085 62.5038C30.4085 62.5038 20.3364 60.091 19.8282 52.1262Z" fill="white"/>
<path d="M104.742 62.4844C105.7 62.1854 106.614 61.7902 107.478 61.2978C109.226 60.3013 110.775 58.9154 112.084 57.1765C113.67 55.0677 114.504 52.9792 114.863 51.9159C115.083 52.0764 115.311 52.2216 115.538 52.3517C115.029 53.8406 111.987 61.7598 104.741 62.4844H104.742Z" fill="white"/>
<path d="M40.6152 10.9038C43.5781 9.46723 47.793 9.70116 52.804 11.5802C55.4019 12.554 57.4381 14.0285 58.9933 15.5462C56.3658 13.9584 51.5335 11.4434 46.8452 11.125C42.8853 10.8556 39.9816 11.8454 37.9716 13.0497C38.6747 12.1359 39.5564 11.4172 40.6152 10.9038Z" fill="white"/>
<path d="M79.8065 13.722C80.961 12.8977 82.2934 12.152 83.8189 11.5802C88.83 9.70116 93.044 9.46723 96.0077 10.9038C96.8344 11.3041 97.5527 11.8311 98.1634 12.4771C95.048 10.9713 88.5479 9.14968 79.8074 13.722H79.8065Z" fill="white"/>
<path d="M70.5485 23.1942C69.7412 23.3437 68.5224 23.8166 67.9565 24.2305C68.4444 23.7677 69.3846 23.076 70.5485 23.1942Z" fill="white"/>
<path d="M64.7624 23.4797C65.5916 22.6259 66.8486 22.9062 67.6355 23.212C67.5313 23.2956 67.4373 23.3783 67.3518 23.4577C66.8359 23.3175 65.5264 23.0709 64.4846 23.7888C64.5701 23.6866 64.6616 23.5836 64.7624 23.4797Z" fill="white"/>
<path d="M49.1203 114.66C48.9094 114.389 48.6747 114.155 48.4181 113.96C52.6761 109.713 58.2199 106.15 61.7648 104.083C58.596 106.385 52.0823 111.276 49.1203 114.66Z" fill="white"/>
<path d="M63.6816 113.951C62.7795 113.591 61.8546 113.222 60.9296 112.808C61.116 112.704 61.3023 112.601 61.4886 112.498C68.3852 115.284 77.3536 116.213 79.9362 116.431C79.8252 116.624 79.699 116.808 79.5567 116.981C78.8664 116.931 78.1913 116.875 77.5297 116.811C77.528 116.811 77.5264 116.811 77.5247 116.811C73.3191 116.411 69.66 115.744 66.1558 114.746C65.368 114.531 64.527 114.288 63.6816 113.951Z" fill="white"/>
<path d="M50.7483 104.919C51.9587 106.259 53.3698 107.427 54.039 107.956C53.8967 108.06 53.7536 108.165 53.6113 108.271C52.295 107.054 51.3819 105.919 50.7483 104.919Z" fill="white"/>
<path d="M48.5587 115.556C47.61 115.142 46.0794 114.698 44.4582 115.143C44.3184 114.98 44.1795 114.822 44.044 114.67C44.8495 114.312 47.2551 113.477 48.5587 115.556Z" fill="white"/>
<path d="M32.7598 105.938C34.2981 105.67 35.8253 106.071 37.2991 107.131C39.2625 108.542 40.2307 110.219 40.1765 112.115C40.1739 112.216 40.168 112.313 40.1595 112.41C39.7665 110.869 38.7492 108.46 36.1556 107.495C34.1778 106.759 32.0966 106.583 30.1188 107.011C31.0065 106.449 31.8882 106.09 32.759 105.938H32.7598Z" fill="white"/>
<path d="M41.0574 113.061C41.8637 113.784 43.2707 115.145 44.7182 117.012C43.6798 116.202 41.6486 114.702 40.7939 114.073C40.893 113.786 40.9896 113.446 41.0582 113.061H41.0574Z" fill="white"/>
<path d="M77.5594 122.207C79.1213 121.72 81.177 122.196 82.6754 123.39C82.6754 123.39 79.4237 122.011 77.3019 123.481C75.5612 124.686 75.4071 128.462 76.775 131.045C75.219 129.316 74.5448 126.771 75.1369 124.796C75.5333 123.473 76.371 122.578 77.5602 122.207H77.5594Z" fill="white"/>
<path d="M79.721 118.898C79.2281 118.841 78.7715 118.494 78.3582 117.864C78.6495 117.888 78.9452 117.912 79.2425 117.934C79.4457 118.238 79.9616 118.733 81.0721 118.462C80.6663 118.74 80.1869 118.952 79.7219 118.898H79.721Z" fill="white"/>
<path d="M81.5531 119.312C81.7691 119.17 81.9623 119.016 82.1283 118.87C82.2714 119.657 82.3841 120.907 81.903 121.762C81.7056 121.666 81.5049 121.578 81.3016 121.501C81.7259 120.717 81.6472 119.812 81.5531 119.312Z" fill="white"/>
<path d="M59.7183 88.5889C60.4764 88.0382 61.2633 87.5788 62.0765 87.214C62.1137 87.203 62.1493 87.1869 62.1824 87.1675C63.9908 86.3762 65.9296 86.0417 67.9794 86.1718C69.8158 86.2892 71.2448 86.768 71.8927 87.0223C71.8927 87.0223 65.3054 85.5435 59.7183 88.588V88.5889Z" fill="white"/>
<path d="M58.6858 86.323C59.5583 86.3525 60.2977 86.5561 60.8221 86.7554C60.6662 86.8381 60.5103 86.926 60.3545 87.0172C59.2406 86.7782 55.8229 86.3829 52.5059 89.4452C54.3736 87.2984 56.4522 86.247 58.6858 86.323Z" fill="white"/>
<path d="M83.0786 73.112C80.4309 73.112 78.2844 71.7436 78.2844 70.0556C78.2844 68.3676 80.4309 66.9993 83.0786 66.9993C85.7264 66.9993 87.8728 68.3676 87.8728 70.0556C87.8728 71.7436 85.7264 73.112 83.0786 73.112Z" fill="#FF6201"/>
<path d="M39.6928 73.112C37.045 73.112 34.8986 71.7436 34.8986 70.0556C34.8986 68.3676 37.045 66.9993 39.6928 66.9993C42.3406 66.9993 44.487 68.3676 44.487 70.0556C44.487 71.7436 42.3406 73.112 39.6928 73.112Z" fill="#FF6201"/>
<path d="M86.2567 29.3188C86.5693 29.4353 86.8361 29.6456 87.0631 29.8973C87.2367 29.7301 87.4138 29.5671 87.6001 29.4218C88.1346 29.008 88.9748 29.5156 88.5928 30.1853C88.3141 30.6734 87.8652 31.1176 87.4646 31.5086C87.1258 31.8389 86.5735 31.7603 86.3287 31.3625C86.0881 30.9724 85.7188 30.7283 85.4469 30.3702C85.0751 29.8821 85.696 29.1093 86.2576 29.3188H86.2567Z" fill="white"/>
<path d="M77.611 39.1145C77.9236 39.231 78.1904 39.4413 78.4174 39.693C78.5911 39.5258 78.7681 39.3628 78.9544 39.2175C79.4889 38.8037 80.3292 39.3113 79.9472 39.981C79.6685 40.4691 79.2196 40.9133 78.8189 41.3044C78.4801 41.6346 77.9278 41.556 77.683 41.1583C77.4425 40.7681 77.0732 40.524 76.8013 40.1659C76.4294 39.6778 77.0503 38.905 77.6119 39.1145H77.611Z" fill="white"/>
<path d="M65.1927 29.2403C65.5053 29.3568 65.7721 29.5671 65.9991 29.8188C66.1727 29.6515 66.3498 29.4885 66.5361 29.3433C67.0706 28.9295 67.9108 29.437 67.5288 30.1067C67.2502 30.5949 66.8012 31.0391 66.4006 31.4301C66.0618 31.7603 65.5095 31.6818 65.2647 31.284C65.0242 30.8938 64.6548 30.6498 64.3829 30.2917C64.0111 29.8036 64.632 29.0308 65.1936 29.2403H65.1927Z" fill="white"/>
<path d="M54.4244 70.9314C54.7369 71.048 55.0037 71.2582 55.2307 71.5099C55.4044 71.3427 55.5814 71.1797 55.7678 71.0344C56.3022 70.6206 57.1425 71.1282 56.7605 71.7979C56.4818 72.286 56.0329 72.7303 55.6322 73.1213C55.2934 73.4515 54.7412 73.373 54.4964 72.9752C54.2558 72.585 53.8865 72.3409 53.6146 71.9829C53.2428 71.4947 53.8636 70.722 54.4252 70.9314H54.4244Z" fill="white"/>
<path d="M45.7 30.024C46.0125 30.1405 46.2793 30.3508 46.5063 30.6025C46.68 30.4353 46.857 30.2723 47.0434 30.127C47.5778 29.7132 48.4181 30.2207 48.0361 30.8905C47.7574 31.3786 47.3085 31.8228 46.9078 32.2138C46.569 32.5441 46.0168 32.4655 45.772 32.0677C45.5314 31.6776 45.1621 31.4335 44.8902 31.0754C44.5184 30.5873 45.1392 29.8145 45.7008 30.024H45.7Z" fill="white"/>
<path d="M45.7 46.8732C46.0125 46.9898 46.2793 47.2001 46.5063 47.4517C46.68 47.2845 46.857 47.1215 47.0434 46.9763C47.5778 46.5624 48.4181 47.07 48.0361 47.7397C47.7574 48.2279 47.3085 48.6721 46.9078 49.0631C46.569 49.3933 46.0168 49.3148 45.772 48.917C45.5314 48.5268 45.1621 48.2827 44.8902 47.9247C44.5184 47.4365 45.1392 46.6638 45.7008 46.8732H45.7Z" fill="white"/>
<path d="M34.5395 63.7216C34.852 63.8382 35.1188 64.0484 35.3459 64.3001C35.5195 64.1329 35.6965 63.9699 35.8829 63.8246C36.4173 63.4108 37.2576 63.9184 36.8756 64.5881C36.5969 65.0762 36.148 65.5205 35.7473 65.9115C35.4085 66.2417 34.8563 66.1631 34.6115 65.7654C34.3709 65.3752 34.0016 65.1311 33.7297 64.773C33.3579 64.2849 33.9787 63.5122 34.5403 63.7216H34.5395Z" fill="white"/>
<path d="M43.0284 79.7863C43.341 79.9028 43.6078 80.1131 43.8348 80.3648C44.0084 80.1976 44.1855 80.0346 44.3718 79.8893C44.9063 79.4755 45.7466 79.9831 45.3645 80.6528C45.0859 81.1409 44.6369 81.5852 44.2363 81.9762C43.8975 82.3064 43.3452 82.2278 43.1004 81.8301C42.8599 81.4399 42.4906 81.1958 42.2187 80.8377C41.8468 80.3496 42.4677 79.5769 43.0293 79.7863H43.0284Z" fill="white"/>
<path d="M35.3255 89.1902C35.638 89.3067 35.9049 89.517 36.1319 89.7687C36.3055 89.6015 36.4825 89.4385 36.6689 89.2932C37.2034 88.8794 38.0436 89.3869 37.6616 90.0567C37.3829 90.5448 36.934 90.989 36.5334 91.38C36.1946 91.7103 35.6423 91.6317 35.3975 91.2339C35.1569 90.8438 34.7876 90.5997 34.5157 90.2416C34.1439 89.7535 34.7648 88.9807 35.3263 89.1902H35.3255Z" fill="white"/>
<path d="M61.0507 97.7672C61.3633 97.8837 61.6301 98.094 61.8571 98.3457C62.0307 98.1785 62.2078 98.0155 62.3941 97.8702C62.9286 97.4564 63.7688 97.964 63.3868 98.6337C63.1082 99.1218 62.6592 99.566 62.2586 99.9571C61.9198 100.287 61.3675 100.209 61.1227 99.811C60.8822 99.4208 60.5128 99.1767 60.241 98.8186C59.8691 98.3305 60.49 97.5578 61.0516 97.7672H61.0507Z" fill="white"/>
<path d="M43.8924 97.7317C44.2049 97.8483 44.4718 98.0586 44.6988 98.3102C44.8724 98.143 45.0494 97.98 45.2358 97.8348C45.7703 97.421 46.6105 97.9285 46.2285 98.5982C45.9498 99.0864 45.5009 99.5306 45.1003 99.9216C44.7614 100.252 44.2092 100.173 43.9644 99.7755C43.7238 99.3853 43.3545 99.1413 43.0826 98.7832C42.7108 98.295 43.3317 97.5223 43.8932 97.7317H43.8924Z" fill="white"/>
<path d="M35.4831 38.6441C35.7956 38.7606 36.0624 38.9709 36.2894 39.2226C36.4631 39.0554 36.6401 38.8924 36.8264 38.7471C37.3609 38.3333 38.2012 38.8409 37.8192 39.5106C37.5405 39.9987 37.0916 40.4429 36.6909 40.834C36.3521 41.1642 35.7998 41.0856 35.5551 40.6879C35.3145 40.2977 34.9452 40.0536 34.6733 39.6955C34.3015 39.2074 34.9223 38.4346 35.4839 38.6441H35.4831Z" fill="white"/>
<path d="M65.0351 48.8317C65.3477 48.9482 65.6145 49.1585 65.8415 49.4102C66.0152 49.243 66.1922 49.08 66.3785 48.9347C66.913 48.5209 67.7533 49.0285 67.3713 49.6982C67.0926 50.1863 66.6437 50.6305 66.243 51.0216C65.9042 51.3518 65.3519 51.2732 65.1071 50.8754C64.8666 50.4853 64.4973 50.2412 64.2254 49.8831C63.8535 49.395 64.4744 48.6222 65.036 48.8317H65.0351Z" fill="white"/>
<path d="M84.2128 77.1218C84.5254 77.2384 84.7922 77.4486 85.0192 77.7003C85.1928 77.5331 85.3699 77.3701 85.5562 77.2248C86.0907 76.811 86.9309 77.3186 86.5489 77.9883C86.2703 78.4764 85.8213 78.9207 85.4207 79.3117C85.0819 79.6419 84.5296 79.5634 84.2848 79.1656C84.0443 78.7754 83.675 78.5313 83.4031 78.1733C83.0312 77.6851 83.6521 76.9124 84.2137 77.1218H84.2128Z" fill="white"/>
<path d="M74.1526 89.582C74.4652 89.6986 74.732 89.9089 74.959 90.1605C75.1326 89.9933 75.3097 89.8303 75.496 89.6851C76.0305 89.2712 76.8707 89.7788 76.4887 90.4485C76.2101 90.9367 75.7611 91.3809 75.3605 91.7719C75.0217 92.1021 74.4694 92.0236 74.2246 91.6258C73.9841 91.2356 73.6147 90.9916 73.3429 90.6335C72.971 90.1453 73.5919 89.3726 74.1535 89.582H74.1526Z" fill="white"/>
<path d="M83.9773 98.0459C84.2899 98.1625 84.5567 98.3728 84.7837 98.6245C84.9574 98.4572 85.1344 98.2942 85.3207 98.149C85.8552 97.7352 86.6955 98.2427 86.3135 98.9124C86.0348 99.4006 85.5859 99.8448 85.1852 100.236C84.8464 100.566 84.2941 100.487 84.0493 100.09C83.8088 99.6995 83.4395 99.4555 83.1676 99.0974C82.7957 98.6093 83.4166 97.8365 83.9782 98.0459H83.9773Z" fill="white"/>
<path d="M84.8422 55.2577C85.1547 55.3743 85.4215 55.5846 85.6485 55.8362C85.8222 55.669 85.9992 55.506 86.1855 55.3608C86.72 54.947 87.5603 55.4545 87.1783 56.1242C86.8996 56.6124 86.4507 57.0566 86.05 57.4476C85.7112 57.7778 85.1589 57.6993 84.9142 57.3015C84.6736 56.9113 84.3043 56.6673 84.0324 56.3092C83.6605 55.821 84.2814 55.0483 84.843 55.2577H84.8422Z" fill="white"/>
<path d="M98.57 31.8541C98.7259 32.0255 98.8301 32.2941 98.8995 32.6023C99.0461 32.4427 99.1934 32.2882 99.3417 32.1547C99.766 31.7738 100.134 32.4486 99.7338 33.1327C99.4416 33.631 99.0605 34.0558 98.7208 34.4299C98.4345 34.7449 98.1262 34.5827 98.083 34.1115C98.0415 33.6487 97.8848 33.3295 97.8153 32.8979C97.7204 32.3093 98.2897 31.5467 98.5692 31.8549L98.57 31.8541Z" fill="#FF6201"/>
<path d="M94.8388 39.8552C94.9947 40.0266 95.0989 40.2952 95.1683 40.6034C95.3149 40.4438 95.4623 40.2893 95.6105 40.1558C96.0349 39.7749 96.4033 40.4497 96.0027 41.1338C95.7104 41.6321 95.3293 42.0569 94.9896 42.431C94.7033 42.746 94.395 42.5838 94.3518 42.1126C94.3103 41.6498 94.1536 41.3306 94.0841 40.899C93.9893 40.3104 94.5585 39.5478 94.838 39.856L94.8388 39.8552Z" fill="#FF6201"/>
<path d="M96.5676 52.0012C96.7235 52.1727 96.8277 52.4412 96.8971 52.7495C97.0437 52.5899 97.1911 52.4353 97.3393 52.3019C97.7636 51.921 98.1321 52.5958 97.7315 53.2798C97.4392 53.7781 97.0581 54.2029 96.7184 54.577C96.4321 54.8921 96.1238 54.7299 96.0806 54.2587C96.0391 53.7959 95.8824 53.4766 95.8129 53.0451C95.7181 52.4564 96.2873 51.6938 96.5668 52.0021L96.5676 52.0012Z" fill="#FF6201"/>
<path d="M92.4807 64.1481C92.6365 64.3195 92.7407 64.5881 92.8102 64.8964C92.9567 64.7367 93.1041 64.5822 93.2523 64.4488C93.6767 64.0679 94.0452 64.7427 93.6445 65.4267C93.3523 65.925 92.9711 66.3498 92.6315 66.7239C92.3452 67.0389 92.0368 66.8768 91.9936 66.4055C91.9521 65.9427 91.7954 65.6235 91.726 65.1919C91.6311 64.6033 92.2003 63.8407 92.4798 64.1489L92.4807 64.1481Z" fill="#FF6201"/>
<path d="M94.5237 75.3542C94.6796 75.5257 94.7838 75.7942 94.8532 76.1025C94.9998 75.9429 95.1471 75.7883 95.2954 75.6549C95.7197 75.274 96.0882 75.9488 95.6875 76.6328C95.3953 77.1311 95.0142 77.5559 94.6745 77.93C94.3882 78.2451 94.0799 78.0829 94.0367 77.6117C93.9952 77.1488 93.8385 76.8296 93.769 76.3981C93.6742 75.8094 94.2434 75.0468 94.5229 75.3551L94.5237 75.3542Z" fill="#FF6201"/>
<path d="M91.6159 88.0492C91.7717 88.2206 91.8759 88.4892 91.9454 88.7975C92.0919 88.6378 92.2393 88.4833 92.3875 88.3499C92.8119 87.969 93.1804 88.6437 92.7797 89.3278C92.4875 89.8261 92.1063 90.2509 91.7667 90.625C91.4804 90.94 91.172 90.7779 91.1288 90.3066C91.0873 89.8438 90.9306 89.5246 90.8612 89.093C90.7663 88.5044 91.3355 87.7418 91.615 88.05L91.6159 88.0492Z" fill="#FF6201"/>
<path d="M92.4019 96.9835C92.5578 97.1549 92.662 97.4235 92.7314 97.7317C92.878 97.5721 93.0253 97.4176 93.1736 97.2842C93.5979 96.9033 93.9664 97.578 93.5658 98.2621C93.2735 98.7604 92.8924 99.1852 92.5527 99.5593C92.2664 99.8743 91.9581 99.7122 91.9149 99.2409C91.8734 98.7781 91.7167 98.4589 91.6472 98.0273C91.5524 97.4387 92.1216 96.6761 92.4011 96.9843L92.4019 96.9835Z" fill="#FF6201"/>
<path d="M101.735 96.8534C101.832 97.0113 101.887 97.2681 101.914 97.5662C102.028 97.399 102.143 97.2368 102.256 97.095C102.582 96.6913 102.794 97.3297 102.465 98.0299C102.224 98.54 101.926 98.985 101.661 99.376C101.437 99.7062 101.231 99.5677 101.234 99.1066C101.236 98.654 101.149 98.3508 101.131 97.931C101.105 97.3584 101.558 96.5688 101.735 96.8526V96.8534Z" fill="#FF6201"/>
<path d="M101.369 89.3261C101.467 89.4841 101.522 89.7408 101.549 90.0389C101.663 89.8717 101.778 89.7096 101.891 89.5677C102.216 89.164 102.429 89.8025 102.1 90.5026C101.859 91.0127 101.561 91.4577 101.296 91.8488C101.072 92.179 100.866 92.0405 100.869 91.5794C100.871 91.1267 100.784 90.8235 100.766 90.4038C100.74 89.8312 101.193 89.0415 101.369 89.3253V89.3261Z" fill="#FF6201"/>
<path d="M104.12 78.9815C104.217 79.1394 104.272 79.3961 104.299 79.6943C104.414 79.527 104.528 79.3649 104.642 79.223C104.967 78.8193 105.179 79.4578 104.85 80.1579C104.609 80.668 104.311 81.1131 104.046 81.5041C103.822 81.8343 103.617 81.6958 103.619 81.2347C103.622 80.782 103.534 80.4788 103.516 80.0591C103.49 79.4865 103.944 78.6969 104.12 78.9806V78.9815Z" fill="#FF6201"/>
<path d="M106.557 55.0804C106.654 55.2383 106.709 55.495 106.736 55.7932C106.851 55.6259 106.965 55.4638 107.078 55.3219C107.404 54.9182 107.616 55.5567 107.287 56.2568C107.046 56.7669 106.748 57.212 106.483 57.603C106.259 57.9332 106.054 57.7947 106.056 57.3336C106.059 56.8809 105.971 56.5777 105.953 56.158C105.927 55.5854 106.38 54.7958 106.557 55.0795V55.0804Z" fill="#FF6201"/>
<path d="M106.635 45.049C106.733 45.207 106.788 45.4637 106.815 45.7618C106.929 45.5946 107.044 45.4325 107.157 45.2906C107.482 44.8869 107.695 45.5254 107.366 46.2255C107.125 46.7356 106.827 47.1806 106.562 47.5717C106.338 47.9019 106.132 47.7634 106.135 47.3022C106.137 46.8496 106.05 46.5464 106.032 46.1267C106.006 45.5541 106.459 44.7644 106.635 45.0482V45.049Z" fill="#FF6201"/>
<path d="M90.3597 45.1521L90.3114 47.0793L31.845 45.1521H90.3597Z" fill="#B94700"/>
<path d="M26.8331 5.42443L25.6668 8.94021L22.1406 10.1031C21.5858 10.2864 21.5858 11.0684 22.1406 11.2517L25.6668 12.4146L26.8331 15.9304C27.0169 16.4836 27.8013 16.4836 27.9851 15.9304L29.1515 12.4146L32.6776 11.2517C33.2325 11.0684 33.2325 10.2864 32.6776 10.1031L29.1515 8.94021L27.9851 5.42443C27.8013 4.87126 27.0169 4.87126 26.8331 5.42443Z" fill="#FF6201"/>
<path d="M13.1578 105.889L11.9914 109.405L8.46525 110.568C7.91045 110.751 7.91045 111.533 8.46525 111.716L11.9914 112.879L13.1578 116.395C13.3416 116.948 14.126 116.948 14.3098 116.395L15.4761 112.879L19.0023 111.716C19.5571 111.533 19.5571 110.751 19.0023 110.568L15.4761 109.405L14.3098 105.889C14.126 105.336 13.3416 105.336 13.1578 105.889Z" fill="#FF6201"/>
<path d="M104.992 106.213L104.211 108.568L101.849 109.347C101.477 109.469 101.477 109.994 101.849 110.116L104.211 110.895L104.992 113.25C105.115 113.621 105.641 113.621 105.764 113.25L106.545 110.895L108.907 110.116C109.279 109.994 109.279 109.469 108.907 109.347L106.545 108.568L105.764 106.213C105.641 105.842 105.115 105.842 104.992 106.213Z" fill="#FF6201"/>
<path d="M125.984 63.5324L124.818 67.0482L121.292 68.2111C120.737 68.3944 120.737 69.1764 121.292 69.3597L124.818 70.5226L125.984 74.0384C126.168 74.5916 126.952 74.5916 127.136 74.0384L128.303 70.5226L131.829 69.3597C132.384 69.1764 132.384 68.3944 131.829 68.2111L128.303 67.0482L127.136 63.5324C126.952 62.9793 126.168 62.9793 125.984 63.5324Z" fill="#FF6201"/>
<path d="M18.9024 14.8553L18.3078 16.6491L16.5087 17.242C16.2258 17.3357 16.2258 17.7343 16.5087 17.8281L18.3078 18.4209L18.9024 20.2147C18.9964 20.4968 19.3962 20.4968 19.4902 20.2147L20.0848 18.4209L21.8839 17.8281C22.1669 17.7343 22.1669 17.3357 21.8839 17.242L20.0848 16.6491L19.4902 14.8553C19.3962 14.5732 18.9964 14.5732 18.9024 14.8553Z" fill="#FF6201"/>
<path d="M75.6214 0.316692L74.7303 3.00315L72.0359 3.89159C71.6115 4.03179 71.6115 4.62972 72.0359 4.76906L74.7303 5.65751L75.6214 8.34397C75.762 8.76708 76.3617 8.76708 76.5014 8.34397L77.3925 5.65751L80.0869 4.76906C80.5113 4.62887 80.5113 4.03094 80.0869 3.89159L77.3925 3.00315L76.5014 0.316692C76.3608 -0.106418 75.7611 -0.106418 75.6214 0.316692Z" fill="#FF6201"/>
<path d="M113.809 12.4653L113.214 14.2591L111.415 14.852C111.132 14.9457 111.132 15.3443 111.415 15.4381L113.214 16.0309L113.809 17.8247C113.903 18.1068 114.303 18.1068 114.397 17.8247L114.991 16.0309L116.791 15.4381C117.073 15.3443 117.073 14.9457 116.791 14.852L114.991 14.2591L114.397 12.4653C114.303 12.1832 113.903 12.1832 113.809 12.4653Z" fill="#FF6201"/>
<path d="M25.7794 72.8063L25.1848 74.6L23.3857 75.1929C23.1028 75.2866 23.1028 75.6853 23.3857 75.779L25.1848 76.3719L25.7794 78.1656C25.8735 78.4477 26.2733 78.4477 26.3673 78.1656L26.9619 76.3719L28.761 75.779C29.0439 75.6853 29.0439 75.2866 28.761 75.1929L26.9619 74.6L26.3673 72.8063C26.2733 72.5242 25.8735 72.5242 25.7794 72.8063Z" fill="#FF6201"/>
<path d="M117.046 73.997L116.452 75.7908L114.653 76.3837C114.37 76.4774 114.37 76.876 114.653 76.9698L116.452 77.5626L117.046 79.3564C117.14 79.6385 117.54 79.6385 117.634 79.3564L118.229 77.5626L120.028 76.9698C120.311 76.876 120.311 76.4774 120.028 76.3837L118.229 75.7908L117.634 73.997C117.54 73.7149 117.14 73.7149 117.046 73.997Z" fill="#FF6201"/>
</g>
<defs>
<clipPath id="clip0_162_17">
<rect width="135" height="136" fill="white" transform="matrix(-1 0 0 1 135 0)"/>
</clipPath>
</defs>
</svg>
